<?xml version="1.0" encoding="utf-8"?>
<!-- Generator: Adobe Illustrator 22.0.1, SVG Export Plug-In . SVG Version: 6.00 Build 0)  -->
<svg version="1.1" xmlns="http://www.w3.org/2000/svg" xmlns:xlink="http://www.w3.org/1999/xlink" x="0px" y="0px"
	 viewBox="0 0 1078.8 1046.7" style="enable-background:new 0 0 1078.8 1046.7;" xml:space="preserve">
<style type="text/css">
	.st0{fill:url(#SVGID_1_);}
	.st1{opacity:0.9;clip-path:url(#SVGID_5_);fill:#FFFFFF;}
	.st2{opacity:0.15;clip-path:url(#SVGID_5_);fill:url(#SVGID_6_);}
	.st3{opacity:5.000000e-02;clip-path:url(#SVGID_5_);fill:url(#SVGID_7_);}
	.st4{opacity:8.164900e-02;clip-path:url(#SVGID_5_);fill:url(#SVGID_8_);}
	.st5{opacity:0.15;fill:#2DA6D6;}
	.st6{fill:#F49E7F;}
	.st7{fill:#F8AF91;}
	.st8{fill:#56250F;}
	.st9{fill:#9286BB;}
	.st10{fill:#1345A8;}
	.st11{opacity:0.4;fill:url(#SVGID_11_);}
	.st12{fill:#FFA900;}
	.st13{opacity:0.4;fill:url(#SVGID_12_);}
	.st14{opacity:0.4;fill:url(#SVGID_13_);}
	.st15{opacity:0.5;fill:url(#SVGID_14_);}
	.st16{opacity:0.5;fill:url(#SVGID_15_);}
	.st17{opacity:0.5;fill:url(#SVGID_16_);}
	.st18{fill:#FFFFFF;}
	.st19{opacity:0.1;}
	.st20{fill:#E0B146;}
	.st21{fill:#EDB73E;}
	.st22{fill:#FDCB50;}
	.st23{fill:#2DA6D6;}
	.st24{fill:#B74875;}
	.st25{fill:#C6537D;}
	.st26{fill:#00CE9F;}
	.st27{fill:#6AA1C6;}
	.st28{fill:#7DB2DC;}
	.st29{fill:none;stroke:#FF00FF;stroke-width:0.2878;stroke-miterlimit:10;}
	.st30{fill:#2D2D2D;}
	.st31{fill:#4681B7;}
	.st32{fill:#3193DD;}
	.st33{fill:#EA9603;}
	.st34{opacity:0.4;fill:url(#SVGID_17_);}
	.st35{opacity:0.4;fill:url(#SVGID_18_);}
	.st36{opacity:0.4;fill:url(#SVGID_19_);}
	.st37{fill:#666666;}
	.st38{fill:#46B54D;}
	.st39{fill:url(#SVGID_20_);}
	.st40{fill:url(#SVGID_21_);}
	.st41{fill:url(#SVGID_22_);}
	.st42{fill:url(#SVGID_23_);}
	.st43{fill:url(#SVGID_24_);}
	.st44{fill:url(#SVGID_25_);}
	.st45{fill:url(#SVGID_26_);}
	.st46{fill:url(#SVGID_27_);}
	.st47{fill:url(#SVGID_28_);}
	.st48{fill:url(#SVGID_29_);}
	.st49{fill:url(#SVGID_30_);}
	.st50{fill:url(#SVGID_31_);}
	.st51{fill:url(#SVGID_32_);}
	.st52{fill:url(#SVGID_33_);}
	.st53{fill:url(#SVGID_34_);}
	.st54{fill:url(#SVGID_35_);}
	.st55{fill:url(#SVGID_36_);}
	.st56{fill:url(#SVGID_37_);}
	.st57{fill:url(#SVGID_38_);}
	.st58{fill:url(#SVGID_39_);}
	.st59{fill:url(#SVGID_40_);}
	.st60{fill:url(#SVGID_41_);}
	.st61{fill:url(#SVGID_42_);}
	.st62{fill:url(#SVGID_43_);}
	.st63{fill:url(#SVGID_44_);}
	.st64{fill:url(#SVGID_45_);}
	.st65{fill:url(#SVGID_46_);}
	.st66{fill:url(#SVGID_47_);}
	.st67{fill:url(#SVGID_48_);}
	.st68{fill:url(#SVGID_49_);}
	.st69{fill:url(#SVGID_50_);}
	.st70{fill:url(#SVGID_51_);}
	.st71{fill:url(#SVGID_52_);}
	.st72{fill:url(#SVGID_53_);}
	.st73{fill:url(#SVGID_54_);}
	.st74{fill:url(#SVGID_55_);}
	.st75{fill:url(#SVGID_56_);}
	.st76{fill:url(#SVGID_57_);}
	.st77{fill:url(#SVGID_58_);}
	.st78{fill:url(#SVGID_59_);}
	.st79{fill:url(#SVGID_60_);}
	.st80{fill:url(#SVGID_61_);}
	.st81{fill:url(#SVGID_62_);}
	.st82{fill:url(#SVGID_63_);}
	.st83{fill:url(#SVGID_64_);}
	.st84{fill:url(#SVGID_65_);}
	.st85{fill:url(#SVGID_66_);}
	.st86{fill:url(#SVGID_67_);}
	.st87{fill:url(#SVGID_68_);}
	.st88{fill:url(#SVGID_69_);}
	.st89{fill:url(#SVGID_70_);}
	.st90{fill:url(#SVGID_71_);}
	.st91{fill:url(#SVGID_72_);}
	.st92{fill:url(#SVGID_73_);}
	.st93{fill:url(#SVGID_74_);}
	.st94{fill:url(#SVGID_75_);}
	.st95{fill:url(#SVGID_76_);}
	.st96{fill:url(#SVGID_77_);}
	.st97{fill:url(#SVGID_78_);}
	.st98{fill:url(#SVGID_79_);}
	.st99{fill:url(#SVGID_80_);}
	.st100{fill:#DB1935;}
	.st101{fill:none;}
	.st102{opacity:0.9;fill:url(#SVGID_81_);}
	.st103{fill:url(#SVGID_82_);}
	.st104{fill:url(#SVGID_83_);}
	.st105{fill:url(#SVGID_84_);}
	.st106{fill:url(#SVGID_85_);}
	.st107{fill:url(#SVGID_86_);}
	.st108{fill:url(#SVGID_87_);}
	.st109{fill:url(#SVGID_88_);}
	.st110{fill:url(#SVGID_89_);}
	.st111{fill:url(#SVGID_90_);}
	.st112{fill:url(#SVGID_91_);}
	.st113{fill:url(#SVGID_92_);}
	.st114{fill:url(#SVGID_93_);}
	.st115{fill:url(#SVGID_94_);}
	.st116{fill:url(#SVGID_95_);}
	.st117{fill:url(#SVGID_96_);}
	.st118{fill:url(#SVGID_97_);}
	.st119{fill:url(#SVGID_98_);}
	.st120{opacity:0.5;fill:#FFFFFF;}
	.st121{fill:none;stroke:#538AC5;stroke-width:3.5833;stroke-miterlimit:10;}
	.st122{fill:url(#SVGID_99_);}
	.st123{opacity:0.9;clip-path:url(#SVGID_103_);fill:#FFFFFF;}
	.st124{opacity:0.15;clip-path:url(#SVGID_103_);fill:url(#SVGID_104_);}
	.st125{opacity:5.000000e-02;clip-path:url(#SVGID_103_);fill:url(#SVGID_105_);}
	.st126{opacity:8.164900e-02;clip-path:url(#SVGID_103_);fill:url(#SVGID_106_);}
	.st127{opacity:0.4;fill:url(#SVGID_109_);}
	.st128{opacity:0.4;fill:url(#SVGID_110_);}
	.st129{opacity:0.4;fill:url(#SVGID_111_);}
	.st130{opacity:0.5;fill:url(#SVGID_112_);}
	.st131{opacity:0.5;fill:url(#SVGID_113_);}
	.st132{opacity:0.5;fill:url(#SVGID_114_);}
	.st133{opacity:0.4;fill:url(#SVGID_115_);}
	.st134{opacity:0.4;fill:url(#SVGID_116_);}
	.st135{opacity:0.4;fill:url(#SVGID_117_);}
	.st136{fill:url(#SVGID_118_);}
	.st137{fill:url(#SVGID_119_);}
	.st138{fill:url(#SVGID_120_);}
	.st139{fill:url(#SVGID_121_);}
	.st140{fill:url(#SVGID_122_);}
	.st141{fill:url(#SVGID_123_);}
	.st142{fill:url(#SVGID_124_);}
	.st143{fill:url(#SVGID_125_);}
	.st144{fill:url(#SVGID_126_);}
	.st145{fill:url(#SVGID_127_);}
	.st146{fill:url(#SVGID_128_);}
	.st147{fill:url(#SVGID_129_);}
	.st148{fill:url(#SVGID_130_);}
	.st149{fill:url(#SVGID_131_);}
	.st150{fill:url(#SVGID_132_);}
	.st151{fill:url(#SVGID_133_);}
	.st152{fill:url(#SVGID_134_);}
	.st153{fill:url(#SVGID_135_);}
	.st154{fill:url(#SVGID_136_);}
	.st155{fill:url(#SVGID_137_);}
	.st156{fill:url(#SVGID_138_);}
	.st157{fill:url(#SVGID_139_);}
	.st158{fill:url(#SVGID_140_);}
	.st159{fill:url(#SVGID_141_);}
	.st160{fill:url(#SVGID_142_);}
	.st161{fill:url(#SVGID_143_);}
	.st162{fill:url(#SVGID_144_);}
	.st163{fill:url(#SVGID_145_);}
	.st164{fill:url(#SVGID_146_);}
	.st165{fill:url(#SVGID_147_);}
	.st166{fill:url(#SVGID_148_);}
	.st167{fill:url(#SVGID_149_);}
	.st168{fill:url(#SVGID_150_);}
	.st169{fill:url(#SVGID_151_);}
	.st170{fill:url(#SVGID_152_);}
	.st171{fill:url(#SVGID_153_);}
	.st172{fill:url(#SVGID_154_);}
	.st173{fill:url(#SVGID_155_);}
	.st174{fill:url(#SVGID_156_);}
	.st175{fill:url(#SVGID_157_);}
	.st176{fill:url(#SVGID_158_);}
	.st177{fill:url(#SVGID_159_);}
	.st178{fill:url(#SVGID_160_);}
	.st179{fill:url(#SVGID_161_);}
	.st180{fill:url(#SVGID_162_);}
	.st181{fill:url(#SVGID_163_);}
	.st182{fill:url(#SVGID_164_);}
	.st183{fill:url(#SVGID_165_);}
	.st184{fill:url(#SVGID_166_);}
	.st185{fill:url(#SVGID_167_);}
	.st186{fill:url(#SVGID_168_);}
	.st187{fill:url(#SVGID_169_);}
	.st188{fill:url(#SVGID_170_);}
	.st189{fill:url(#SVGID_171_);}
	.st190{fill:url(#SVGID_172_);}
	.st191{fill:url(#SVGID_173_);}
	.st192{fill:url(#SVGID_174_);}
	.st193{fill:url(#SVGID_175_);}
	.st194{fill:url(#SVGID_176_);}
	.st195{fill:url(#SVGID_177_);}
	.st196{fill:url(#SVGID_178_);}
	.st197{opacity:0.9;fill:url(#SVGID_179_);}
	.st198{fill:url(#SVGID_180_);}
	.st199{fill:url(#SVGID_181_);}
	.st200{fill:url(#SVGID_182_);}
	.st201{fill:url(#SVGID_183_);}
	.st202{fill:url(#SVGID_184_);}
	.st203{fill:url(#SVGID_185_);}
	.st204{fill:url(#SVGID_186_);}
	.st205{fill:url(#SVGID_187_);}
	.st206{fill:url(#SVGID_188_);}
	.st207{fill:url(#SVGID_189_);}
	.st208{fill:url(#SVGID_190_);}
	.st209{fill:url(#SVGID_191_);}
	.st210{fill:url(#SVGID_192_);}
	.st211{fill:url(#SVGID_193_);}
	.st212{fill:url(#SVGID_194_);}
	.st213{fill:url(#SVGID_195_);}
	.st214{fill:url(#SVGID_196_);}
	.st215{opacity:0.9;fill:url(#SVGID_197_);}
	.st216{opacity:0.9;clip-path:url(#SVGID_201_);fill:#FFFFFF;}
	.st217{opacity:0.15;clip-path:url(#SVGID_201_);fill:url(#SVGID_202_);}
	.st218{opacity:5.000000e-02;clip-path:url(#SVGID_201_);fill:url(#SVGID_203_);}
	.st219{opacity:8.164900e-02;clip-path:url(#SVGID_201_);fill:url(#SVGID_204_);}
	.st220{opacity:0.4;fill:url(#SVGID_207_);}
	.st221{opacity:0.4;fill:url(#SVGID_208_);}
	.st222{opacity:0.4;fill:url(#SVGID_209_);}
	.st223{opacity:0.5;fill:url(#SVGID_210_);}
	.st224{opacity:0.5;fill:url(#SVGID_211_);}
	.st225{opacity:0.5;fill:url(#SVGID_212_);}
	.st226{opacity:0.4;fill:url(#SVGID_213_);}
	.st227{opacity:0.4;fill:url(#SVGID_214_);}
	.st228{opacity:0.4;fill:url(#SVGID_215_);}
	.st229{fill:url(#SVGID_216_);}
	.st230{fill:url(#SVGID_217_);}
	.st231{fill:url(#SVGID_218_);}
	.st232{fill:url(#SVGID_219_);}
	.st233{fill:url(#SVGID_220_);}
	.st234{fill:url(#SVGID_221_);}
	.st235{fill:url(#SVGID_222_);}
	.st236{fill:url(#SVGID_223_);}
	.st237{fill:url(#SVGID_224_);}
	.st238{fill:url(#SVGID_225_);}
	.st239{fill:url(#SVGID_226_);}
	.st240{fill:url(#SVGID_227_);}
	.st241{fill:url(#SVGID_228_);}
	.st242{fill:url(#SVGID_229_);}
	.st243{fill:url(#SVGID_230_);}
	.st244{fill:url(#SVGID_231_);}
	.st245{fill:url(#SVGID_232_);}
	.st246{fill:url(#SVGID_233_);}
	.st247{fill:url(#SVGID_234_);}
	.st248{fill:url(#SVGID_235_);}
	.st249{fill:url(#SVGID_236_);}
	.st250{fill:url(#SVGID_237_);}
	.st251{fill:url(#SVGID_238_);}
	.st252{fill:url(#SVGID_239_);}
	.st253{fill:url(#SVGID_240_);}
	.st254{fill:url(#SVGID_241_);}
	.st255{fill:url(#SVGID_242_);}
	.st256{fill:url(#SVGID_243_);}
	.st257{fill:url(#SVGID_244_);}
	.st258{fill:url(#SVGID_245_);}
	.st259{fill:url(#SVGID_246_);}
	.st260{fill:url(#SVGID_247_);}
	.st261{fill:url(#SVGID_248_);}
	.st262{fill:url(#SVGID_249_);}
	.st263{fill:url(#SVGID_250_);}
	.st264{fill:url(#SVGID_251_);}
	.st265{fill:url(#SVGID_252_);}
	.st266{fill:url(#SVGID_253_);}
	.st267{fill:url(#SVGID_254_);}
	.st268{fill:url(#SVGID_255_);}
	.st269{fill:url(#SVGID_256_);}
	.st270{fill:url(#SVGID_257_);}
	.st271{fill:url(#SVGID_258_);}
	.st272{fill:url(#SVGID_259_);}
	.st273{fill:url(#SVGID_260_);}
	.st274{fill:url(#SVGID_261_);}
	.st275{fill:url(#SVGID_262_);}
	.st276{fill:url(#SVGID_263_);}
	.st277{fill:url(#SVGID_264_);}
	.st278{fill:url(#SVGID_265_);}
	.st279{fill:url(#SVGID_266_);}
	.st280{fill:url(#SVGID_267_);}
	.st281{fill:url(#SVGID_268_);}
	.st282{fill:url(#SVGID_269_);}
	.st283{fill:url(#SVGID_270_);}
	.st284{fill:url(#SVGID_271_);}
	.st285{fill:url(#SVGID_272_);}
	.st286{fill:url(#SVGID_273_);}
	.st287{fill:url(#SVGID_274_);}
	.st288{fill:url(#SVGID_275_);}
	.st289{fill:url(#SVGID_276_);}
	.st290{opacity:0.9;fill:url(#SVGID_277_);}
	.st291{fill:url(#SVGID_278_);}
	.st292{fill:url(#SVGID_279_);}
	.st293{fill:url(#SVGID_280_);}
	.st294{fill:url(#SVGID_281_);}
	.st295{fill:url(#SVGID_282_);}
	.st296{fill:url(#SVGID_283_);}
	.st297{fill:url(#SVGID_284_);}
	.st298{fill:url(#SVGID_285_);}
	.st299{fill:url(#SVGID_286_);}
	.st300{fill:url(#SVGID_287_);}
	.st301{fill:url(#SVGID_288_);}
	.st302{fill:url(#SVGID_289_);}
	.st303{fill:url(#SVGID_290_);}
	.st304{fill:url(#SVGID_291_);}
	.st305{fill:url(#SVGID_292_);}
	.st306{fill:url(#SVGID_293_);}
	.st307{fill:url(#SVGID_294_);}
	.st308{fill:url(#SVGID_295_);}
	.st309{opacity:0.9;clip-path:url(#SVGID_299_);fill:#FFFFFF;}
	.st310{opacity:0.15;clip-path:url(#SVGID_299_);fill:url(#SVGID_300_);}
	.st311{opacity:5.000000e-02;clip-path:url(#SVGID_299_);fill:url(#SVGID_301_);}
	.st312{opacity:8.164900e-02;clip-path:url(#SVGID_299_);fill:url(#SVGID_302_);}
	.st313{opacity:0.4;fill:url(#SVGID_305_);}
	.st314{opacity:0.4;fill:url(#SVGID_306_);}
	.st315{opacity:0.4;fill:url(#SVGID_307_);}
	.st316{opacity:0.5;fill:url(#SVGID_308_);}
	.st317{opacity:0.5;fill:url(#SVGID_309_);}
	.st318{opacity:0.5;fill:url(#SVGID_310_);}
	.st319{opacity:0.4;fill:url(#SVGID_311_);}
	.st320{opacity:0.4;fill:url(#SVGID_312_);}
	.st321{opacity:0.4;fill:url(#SVGID_313_);}
	.st322{fill:url(#SVGID_314_);}
	.st323{fill:url(#SVGID_315_);}
	.st324{fill:url(#SVGID_316_);}
	.st325{fill:url(#SVGID_317_);}
	.st326{fill:url(#SVGID_318_);}
	.st327{fill:url(#SVGID_319_);}
	.st328{fill:url(#SVGID_320_);}
	.st329{fill:url(#SVGID_321_);}
	.st330{fill:url(#SVGID_322_);}
	.st331{fill:url(#SVGID_323_);}
	.st332{fill:url(#SVGID_324_);}
	.st333{fill:url(#SVGID_325_);}
	.st334{fill:url(#SVGID_326_);}
	.st335{fill:url(#SVGID_327_);}
	.st336{fill:url(#SVGID_328_);}
	.st337{fill:url(#SVGID_329_);}
	.st338{fill:url(#SVGID_330_);}
	.st339{fill:url(#SVGID_331_);}
	.st340{fill:url(#SVGID_332_);}
	.st341{fill:url(#SVGID_333_);}
	.st342{fill:url(#SVGID_334_);}
	.st343{fill:url(#SVGID_335_);}
	.st344{fill:url(#SVGID_336_);}
	.st345{fill:url(#SVGID_337_);}
	.st346{fill:url(#SVGID_338_);}
	.st347{fill:url(#SVGID_339_);}
	.st348{fill:url(#SVGID_340_);}
	.st349{fill:url(#SVGID_341_);}
	.st350{fill:url(#SVGID_342_);}
	.st351{fill:url(#SVGID_343_);}
	.st352{fill:url(#SVGID_344_);}
	.st353{fill:url(#SVGID_345_);}
	.st354{fill:url(#SVGID_346_);}
	.st355{fill:url(#SVGID_347_);}
	.st356{fill:url(#SVGID_348_);}
	.st357{fill:url(#SVGID_349_);}
	.st358{fill:url(#SVGID_350_);}
	.st359{fill:url(#SVGID_351_);}
	.st360{fill:url(#SVGID_352_);}
	.st361{fill:url(#SVGID_353_);}
	.st362{fill:url(#SVGID_354_);}
	.st363{fill:url(#SVGID_355_);}
	.st364{fill:url(#SVGID_356_);}
	.st365{fill:url(#SVGID_357_);}
	.st366{fill:url(#SVGID_358_);}
	.st367{fill:url(#SVGID_359_);}
	.st368{fill:url(#SVGID_360_);}
	.st369{fill:url(#SVGID_361_);}
	.st370{fill:url(#SVGID_362_);}
	.st371{fill:url(#SVGID_363_);}
	.st372{fill:url(#SVGID_364_);}
	.st373{fill:url(#SVGID_365_);}
	.st374{fill:url(#SVGID_366_);}
	.st375{fill:url(#SVGID_367_);}
	.st376{fill:url(#SVGID_368_);}
	.st377{fill:url(#SVGID_369_);}
	.st378{fill:url(#SVGID_370_);}
	.st379{fill:url(#SVGID_371_);}
	.st380{fill:url(#SVGID_372_);}
	.st381{fill:url(#SVGID_373_);}
	.st382{fill:url(#SVGID_374_);}
	.st383{opacity:0.9;fill:url(#SVGID_375_);}
	.st384{fill:url(#SVGID_376_);}
	.st385{fill:url(#SVGID_377_);}
	.st386{fill:url(#SVGID_378_);}
	.st387{fill:url(#SVGID_379_);}
	.st388{fill:url(#SVGID_380_);}
	.st389{fill:url(#SVGID_381_);}
	.st390{fill:url(#SVGID_382_);}
	.st391{fill:url(#SVGID_383_);}
	.st392{fill:url(#SVGID_384_);}
	.st393{fill:url(#SVGID_385_);}
	.st394{fill:url(#SVGID_386_);}
	.st395{fill:url(#SVGID_387_);}
	.st396{fill:url(#SVGID_388_);}
	.st397{fill:url(#SVGID_389_);}
	.st398{fill:url(#SVGID_390_);}
	.st399{fill:url(#SVGID_391_);}
	.st400{fill:url(#SVGID_392_);}
	.st401{fill:#26186D;}
	.st402{fill:#F8F8FA;}
	.st403{opacity:0.2;}
	.st404{fill:url(#SVGID_393_);}
	.st405{fill:url(#SVGID_394_);}
	.st406{fill:#575757;}
	.st407{fill:#485166;}
	.st408{filter:url(#Adobe_OpacityMaskFilter);}
	.st409{opacity:0.2;mask:url(#SVGID_395_);}
	.st410{fill:#494949;}
	.st411{opacity:0.2;fill:#FFFFFF;}
	.st412{fill:url(#SVGID_396_);}
	.st413{fill:url(#SVGID_397_);}
	.st414{fill:url(#SVGID_398_);}
	.st415{fill:url(#SVGID_399_);}
	.st416{fill:url(#SVGID_400_);}
	.st417{fill:url(#SVGID_401_);}
	.st418{opacity:0.2;fill:url(#SVGID_402_);}
	.st419{fill:#8EA3B2;}
	.st420{fill:#D6E1E5;}
	.st421{enable-background:new    ;}
	.st422{fill:#E5EBED;}
	.st423{fill:#A5BAC6;}
	.st424{fill:#1B2A30;}
	.st425{fill:#78858E;}
	.st426{fill:#0C0A0C;}
	.st427{fill:url(#SVGID_403_);}
	.st428{fill:#D5E1E7;}
	.st429{clip-path:url(#SVGID_405_);enable-background:new    ;}
	.st430{fill:#676155;}
	.st431{fill:#6B6558;}
	.st432{fill:#6F695B;}
	.st433{fill:#736C5F;}
	.st434{fill:#777062;}
	.st435{fill:#7B7465;}
	.st436{fill:#7F7868;}
	.st437{fill:#837B6C;}
	.st438{fill:#877F6F;}
	.st439{fill:#8B8372;}
	.st440{fill:#8F8775;}
	.st441{clip-path:url(#SVGID_407_);enable-background:new    ;}
	.st442{clip-path:url(#SVGID_409_);enable-background:new    ;}
	.st443{clip-path:url(#SVGID_411_);enable-background:new    ;}
	.st444{fill:#121011;}
	.st445{fill:#131111;}
	.st446{fill:#141112;}
	.st447{fill:#141213;}
	.st448{fill:#151313;}
	.st449{fill:#161314;}
	.st450{fill:#161414;}
	.st451{fill:#171415;}
	.st452{fill:#181516;}
	.st453{fill:#191616;}
	.st454{fill:#191617;}
	.st455{fill:#BB3B69;}
	.st456{fill:#792644;}
	.st457{fill:#F1F2F2;}
	.st458{clip-path:url(#SVGID_413_);enable-background:new    ;}
	.st459{fill:#8C2C4F;}
	.st460{fill:#912E52;}
	.st461{fill:#962F54;}
	.st462{fill:#9B3157;}
	.st463{fill:#A0325A;}
	.st464{fill:#A5345C;}
	.st465{fill:#A9355F;}
	.st466{fill:#AE3762;}
	.st467{clip-path:url(#SVGID_415_);enable-background:new    ;}
	.st468{fill:#7E2847;}
	.st469{clip-path:url(#SVGID_417_);enable-background:new    ;}
	.st470{fill:#882B4C;}
	.st471{fill:#832949;}
	.st472{clip-path:url(#SVGID_419_);enable-background:new    ;}
	.st473{fill:#56A7D8;}
	.st474{fill:#217CB5;}
	.st475{clip-path:url(#SVGID_421_);enable-background:new    ;}
	.st476{fill:#6A619B;}
	.st477{clip-path:url(#SVGID_423_);enable-background:new    ;}
	.st478{clip-path:url(#SVGID_425_);enable-background:new    ;}
	.st479{clip-path:url(#SVGID_427_);enable-background:new    ;}
	.st480{clip-path:url(#SVGID_429_);enable-background:new    ;}
	.st481{clip-path:url(#SVGID_431_);enable-background:new    ;}
	.st482{clip-path:url(#SVGID_433_);enable-background:new    ;}
	.st483{clip-path:url(#SVGID_435_);enable-background:new    ;}
	.st484{clip-path:url(#SVGID_437_);enable-background:new    ;}
	.st485{clip-path:url(#SVGID_439_);enable-background:new    ;}
	.st486{clip-path:url(#SVGID_441_);enable-background:new    ;}
	.st487{clip-path:url(#SVGID_443_);enable-background:new    ;}
	.st488{clip-path:url(#SVGID_445_);enable-background:new    ;}
	.st489{clip-path:url(#SVGID_447_);enable-background:new    ;}
	.st490{clip-path:url(#SVGID_449_);enable-background:new    ;}
	.st491{clip-path:url(#SVGID_451_);enable-background:new    ;}
	.st492{clip-path:url(#SVGID_453_);enable-background:new    ;}
	.st493{clip-path:url(#SVGID_455_);enable-background:new    ;}
	.st494{fill:#121010;}
	.st495{fill:#00ACB3;}
	.st496{clip-path:url(#SVGID_457_);enable-background:new    ;}
	.st497{fill:#635E52;}
	.st498{clip-path:url(#SVGID_459_);enable-background:new    ;}
	.st499{clip-path:url(#SVGID_461_);enable-background:new    ;}
	.st500{clip-path:url(#SVGID_463_);enable-background:new    ;}
	.st501{clip-path:url(#SVGID_465_);enable-background:new    ;}
	.st502{clip-path:url(#SVGID_467_);enable-background:new    ;}
	.st503{fill:#988F7D;}
	.st504{fill:#131112;}
	.st505{clip-path:url(#SVGID_469_);enable-background:new    ;}
	.st506{fill:#1B1819;}
	.st507{clip-path:url(#SVGID_471_);enable-background:new    ;}
	.st508{fill:#7F7869;}
	.st509{clip-path:url(#SVGID_473_);enable-background:new    ;}
	.st510{fill:#8C8473;}
	.st511{clip-path:url(#SVGID_475_);enable-background:new    ;}
	.st512{clip-path:url(#SVGID_477_);enable-background:new    ;}
	.st513{clip-path:url(#SVGID_479_);enable-background:new    ;}
	.st514{clip-path:url(#SVGID_481_);enable-background:new    ;}
	.st515{clip-path:url(#SVGID_483_);enable-background:new    ;}
	.st516{clip-path:url(#SVGID_485_);enable-background:new    ;}
	.st517{clip-path:url(#SVGID_487_);enable-background:new    ;}
	.st518{fill:#161415;}
	.st519{clip-path:url(#SVGID_489_);enable-background:new    ;}
	.st520{clip-path:url(#SVGID_491_);enable-background:new    ;}
	.st521{clip-path:url(#SVGID_493_);enable-background:new    ;}
	.st522{clip-path:url(#SVGID_495_);enable-background:new    ;}
	.st523{clip-path:url(#SVGID_497_);enable-background:new    ;}
	.st524{clip-path:url(#SVGID_499_);enable-background:new    ;}
	.st525{clip-path:url(#SVGID_501_);enable-background:new    ;}
	.st526{clip-path:url(#SVGID_503_);enable-background:new    ;}
	.st527{clip-path:url(#SVGID_505_);enable-background:new    ;}
	.st528{fill:#E6E7E8;}
	.st529{clip-path:url(#SVGID_507_);enable-background:new    ;}
	.st530{clip-path:url(#SVGID_509_);enable-background:new    ;}
	.st531{clip-path:url(#SVGID_511_);enable-background:new    ;}
	.st532{fill:#5B4F99;}
	.st533{opacity:0.7;fill:#8C9396;}
	.st534{opacity:0.7;fill:url(#SVGID_512_);}
	.st535{fill:#1341D6;}
	.st536{opacity:0.4;fill:url(#SVGID_513_);}
	.st537{opacity:0.4;fill:url(#SVGID_514_);}
	.st538{fill:#C6825C;}
	.st539{fill:#E29969;}
	.st540{fill:#C8DBFB;}
	.st541{fill:#AA7957;}
	.st542{fill:#896146;}
	.st543{fill:#FFB9A3;}
	.st544{opacity:0.4;fill:url(#SVGID_515_);}
	.st545{fill:#000080;}
	.st546{fill:#0C2340;}
	.st547{fill:#DB977F;}
	.st548{fill:#6D180F;}
	.st549{opacity:0.4;fill:url(#SVGID_516_);}
	.st550{opacity:0.4;fill:url(#SVGID_517_);}
	.st551{fill:#CE9772;}
	.st552{fill:#B58564;}
	.st553{opacity:0.5;fill:url(#SVGID_518_);}
	.st554{opacity:0.5;fill:url(#SVGID_519_);}
	.st555{fill:#ECF3FF;}
	.st556{font-family:'Futura-Bold';}
	.st557{font-size:90px;}
	.st558{font-family:'Futura-Medium';}
	.st559{font-size:40px;}
	.st560{opacity:0.49;fill:url(#SVGID_520_);}
	.st561{fill:#D3D3D3;}
	.st562{fill:url(#SVGID_521_);}
	.st563{fill:url(#SVGID_522_);}
	.st564{fill:#484F72;}
	.st565{fill:#86A2B7;}
	.st566{fill:none;stroke:#417ED6;stroke-width:2.6941;stroke-miterlimit:10;}
	.st567{opacity:0.63;fill:url(#SVGID_525_);}
	.st568{opacity:0.63;fill:url(#SVGID_526_);}
	.st569{fill:#F8F9FB;}
	.st570{fill:#E2ECF8;}
	.st571{fill:url(#SVGID_527_);}
	.st572{fill:url(#SVGID_528_);}
	.st573{fill:url(#SVGID_529_);}
	.st574{fill:url(#SVGID_530_);}
	.st575{fill:url(#SVGID_531_);}
	.st576{fill:url(#SVGID_532_);}
	.st577{fill:url(#SVGID_533_);}
	.st578{fill:url(#SVGID_534_);}
	.st579{fill:url(#SVGID_535_);}
	.st580{display:none;}
	.st581{display:inline;opacity:0.9;fill:url(#SVGID_536_);}
	.st582{display:inline;}
	.st583{opacity:0.4;}
	.st584{clip-path:url(#SVGID_538_);fill:#FFFFFF;}
	.st585{opacity:0.15;clip-path:url(#SVGID_538_);fill:url(#SVGID_539_);}
	.st586{opacity:5.000000e-02;clip-path:url(#SVGID_538_);fill:url(#SVGID_540_);}
	.st587{opacity:8.164900e-02;clip-path:url(#SVGID_538_);fill:url(#SVGID_541_);}
	.st588{opacity:0.4;fill:url(#SVGID_542_);}
	.st589{opacity:0.4;fill:url(#SVGID_543_);}
	.st590{opacity:0.4;fill:url(#SVGID_544_);}
	.st591{opacity:0.5;fill:url(#SVGID_545_);}
	.st592{opacity:0.5;fill:url(#SVGID_546_);}
	.st593{opacity:0.5;fill:url(#SVGID_547_);}
	.st594{fill:none;stroke:#FF00FF;stroke-width:0.2549;stroke-miterlimit:10;}
	.st595{fill:#538AC5;}
	.st596{opacity:0.4;fill:url(#SVGID_548_);}
	.st597{opacity:0.4;fill:url(#SVGID_549_);}
	.st598{opacity:0.4;fill:url(#SVGID_550_);}
	.st599{fill:url(#SVGID_551_);}
	.st600{fill:url(#SVGID_552_);}
	.st601{fill:url(#SVGID_553_);}
	.st602{fill:url(#SVGID_554_);}
	.st603{fill:url(#SVGID_555_);}
	.st604{fill:url(#SVGID_556_);}
	.st605{fill:url(#SVGID_557_);}
	.st606{fill:url(#SVGID_558_);}
	.st607{fill:url(#SVGID_559_);}
	.st608{fill:url(#SVGID_560_);}
	.st609{fill:url(#SVGID_561_);}
	.st610{fill:url(#SVGID_562_);}
	.st611{fill:url(#SVGID_563_);}
	.st612{fill:url(#SVGID_564_);}
	.st613{fill:url(#SVGID_565_);}
	.st614{fill:url(#SVGID_566_);}
	.st615{fill:url(#SVGID_567_);}
	.st616{fill:url(#SVGID_568_);}
	.st617{fill:url(#SVGID_569_);}
	.st618{fill:url(#SVGID_570_);}
	.st619{fill:url(#SVGID_571_);}
	.st620{fill:url(#SVGID_572_);}
	.st621{fill:url(#SVGID_573_);}
	.st622{fill:url(#SVGID_574_);}
	.st623{fill:url(#SVGID_575_);}
	.st624{fill:url(#SVGID_576_);}
	.st625{fill:url(#SVGID_577_);}
	.st626{fill:url(#SVGID_578_);}
	.st627{fill:url(#SVGID_579_);}
	.st628{fill:url(#SVGID_580_);}
	.st629{fill:url(#SVGID_581_);}
	.st630{fill:url(#SVGID_582_);}
	.st631{fill:url(#SVGID_583_);}
	.st632{fill:url(#SVGID_584_);}
	.st633{fill:url(#SVGID_585_);}
	.st634{fill:url(#SVGID_586_);}
	.st635{fill:url(#SVGID_587_);}
	.st636{fill:url(#SVGID_588_);}
	.st637{fill:url(#SVGID_589_);}
	.st638{fill:url(#SVGID_590_);}
	.st639{fill:url(#SVGID_591_);}
	.st640{fill:url(#SVGID_592_);}
	.st641{fill:url(#SVGID_593_);}
	.st642{fill:url(#SVGID_594_);}
	.st643{fill:url(#SVGID_595_);}
	.st644{fill:url(#SVGID_596_);}
	.st645{fill:url(#SVGID_597_);}
	.st646{fill:url(#SVGID_598_);}
	.st647{fill:url(#SVGID_599_);}
	.st648{fill:url(#SVGID_600_);}
	.st649{fill:url(#SVGID_601_);}
	.st650{fill:url(#SVGID_602_);}
	.st651{fill:url(#SVGID_603_);}
	.st652{fill:url(#SVGID_604_);}
	.st653{fill:url(#SVGID_605_);}
	.st654{fill:url(#SVGID_606_);}
	.st655{fill:url(#SVGID_607_);}
	.st656{fill:url(#SVGID_608_);}
	.st657{fill:url(#SVGID_609_);}
	.st658{fill:url(#SVGID_610_);}
	.st659{fill:url(#SVGID_611_);}
	.st660{opacity:0.9;fill:url(#SVGID_612_);}
	.st661{fill:url(#SVGID_613_);}
	.st662{fill:url(#SVGID_614_);}
	.st663{fill:url(#SVGID_615_);}
	.st664{fill:url(#SVGID_616_);}
	.st665{fill:url(#SVGID_617_);}
	.st666{fill:url(#SVGID_618_);}
	.st667{fill:url(#SVGID_619_);}
	.st668{fill:url(#SVGID_620_);}
	.st669{fill:url(#SVGID_621_);}
	.st670{fill:url(#SVGID_622_);}
	.st671{fill:url(#SVGID_623_);}
	.st672{fill:url(#SVGID_624_);}
	.st673{fill:url(#SVGID_625_);}
	.st674{fill:url(#SVGID_626_);}
	.st675{fill:url(#SVGID_627_);}
	.st676{fill:url(#SVGID_628_);}
	.st677{fill:url(#SVGID_629_);}
	.st678{font-size:46px;}
	.st679{font-size:22px;}
	.st680{font-size:18px;}
	.st681{fill:none;stroke:#538AC5;stroke-width:3.0422;stroke-miterlimit:10;}
	.st682{fill:#808080;}
	.st683{font-family:'Futura-MediumItalic';}
	.st684{font-size:24px;}
</style>
<g id="Layer_1">
	<path class="st0" d="M-490.9,1268c0,0,239-199.8-43.1-497.5s-329-874.7,7.9-945.2s758.4,283.6,1030.3-30.1
		c225.9-260.7,615.3-376.2,926.6-102v-383.9h-2938V1268H-490.9z"/>
	<g>
		<g>
			<text transform="matrix(1 0 0 1 4.882812e-04 863.8709)" class="st38 st556 st557">¡Tus reportes a un clic!</text>
		</g>
		<rect x="117.5" y="915" class="st101" width="843.9" height="131.7"/>
		<text transform="matrix(1 0 0 1 157.7947 947.9783)"><tspan x="0" y="0" class="st37 st558 st559">Olvídate de los métodos antiguos, no más </tspan><tspan x="-29.8" y="42" class="st37 st558 st559">archivos que actualizar o llenar uno por uno. </tspan><tspan x="186.6" y="84" class="st37 st558 st559">Idukay lo hace por ti.</tspan></text>
		<g>
			<g>
				<g>
					<linearGradient id="SVGID_3_" gradientUnits="userSpaceOnUse" x1="634.1992" y1="507.6749" x2="599.0332" y2="740.8817">
						<stop  offset="0" style="stop-color:#D3D3D3;stop-opacity:0.8689"/>
						<stop  offset="0.9977" style="stop-color:#E6E6E6;stop-opacity:0"/>
					</linearGradient>
					<path style="opacity:0.49;fill:url(#SVGID_3_);" d="M311.8,541l0.3,7.5c0.8,20.1,11.5,38.4,28.6,49l218.6,134.2L916.1,524
						c23.4-13.6,39.2-37.4,42.6-64.3l0,0L311.8,541z"/>
					<g>
						<g>
							<g>
								<path class="st561" d="M948.9,434.2L725.1,305.6c0,0-336.1,182.4-408.7,222.9c-6.1,3.4-6.2,12.2-0.1,15.7
									c40.8,23.6,163.1,94.3,220.1,127.5c20.7,12.1,46.3,12.1,67.1,0.1l345.4-199.9C963.4,463.5,963.4,442.6,948.9,434.2z"/>
								<path class="st561" d="M695.6,1.8L314.4,220.6c-7.2,4.2-11.6,11.9-11.6,20.2v271.6c0,7.3,4.1,14,10.5,17.3l0,0L726,290.2
									V19.3c-3.5-6.7-7.9-12.7-15.2-16.2C706.5-0.5,700.5-1,695.6,1.8z"/>
								
									<linearGradient id="SVGID_5_" gradientUnits="userSpaceOnUse" x1="-5279.3472" y1="-47.2984" x2="-5325.1299" y2="310.6385" gradientTransform="matrix(-1 0 0 1 -4800.9629 0)">
									<stop  offset="4.858500e-04" style="stop-color:#FFFFFF"/>
									<stop  offset="0.9925" style="stop-color:#E6E6E6"/>
								</linearGradient>
								<path style="fill:url(#SVGID_5_);" d="M313.3,529.6L726,293.8V21.9c0-10.2-11-16.6-19.9-11.6L320,230
									c-4.2,2.4-6.7,6.8-6.7,11.6V529.6z"/>
								
									<linearGradient id="SVGID_6_" gradientUnits="userSpaceOnUse" x1="-5339.1777" y1="389.1121" x2="-5504.4468" y2="542.3616" gradientTransform="matrix(-1 0 0 1 -4800.9629 0)">
									<stop  offset="4.858500e-04" style="stop-color:#FFFFFF"/>
									<stop  offset="0.9925" style="stop-color:#E6E6E6"/>
								</linearGradient>
								<path style="fill:url(#SVGID_6_);" d="M949.7,422.4L726,293.8c0,0-416.5,233.7-412.7,235.8c3,1.6,154.9,90.1,224,130.3
									c20.7,12.1,46.3,12.1,67.1,0.1l345.4-199.9C964.3,451.7,964.2,430.8,949.7,422.4z"/>
								<g>
									<polygon class="st564" points="740.1,327 721,313.6 696.7,327.7 715.6,341.1 									"/>
									<polygon class="st564" points="712.6,342.8 693.5,329.4 669.2,343.4 688.2,356.9 									"/>
									<polygon class="st564" points="684.4,359.4 665.4,346 641.1,360 660,373.5 									"/>
									<polygon class="st564" points="655.6,375.8 636.6,362.4 612.3,376.5 631.2,389.9 									"/>
									<polygon class="st564" points="628.4,391.3 609.4,377.9 585.1,391.9 604,405.4 									"/>
									<polygon class="st564" points="600.1,407.9 581,394.5 556.7,408.6 575.7,422 									"/>
									<polygon class="st564" points="571.9,424.8 552.8,411.4 528.5,425.5 547.5,438.9 									"/>
									<polygon class="st564" points="543.9,440.3 524.9,426.9 500.6,441 519.5,454.4 									"/>
									<polygon class="st564" points="515.6,457 496.6,443.6 472.3,457.6 491.2,471.1 									"/>
									<polygon class="st564" points="487.4,473.1 468.4,459.7 444.1,473.8 463,487.2 									"/>
									<polygon class="st564" points="458.9,489.4 439.9,476 415.6,490.1 434.5,503.5 									"/>
									<polygon class="st564" points="432.1,504.7 413.1,491.4 388.8,505.4 407.7,518.8 									"/>
									<polygon class="st564" points="436.8,539.5 418.2,528.5 393.9,542.6 412.5,553.5 									"/>
									<polygon class="st564" points="465.3,522.6 446.8,511.6 422.5,525.7 441,536.6 									"/>
									<polygon class="st564" points="515.8,519.8 497.2,508.9 472.9,522.9 491.5,533.9 									"/>
									<polygon class="st564" points="487.7,536 469.1,525.1 444.8,539.1 463.4,550.1 									"/>
									<polygon class="st564" points="511.3,549.5 492.7,538.5 468.4,552.6 487,563.6 									"/>
									<polygon class="st564" points="539.2,533.5 520.6,522.6 496.4,536.6 514.9,547.6 									"/>
									<polygon class="st564" points="562.6,547.3 544,536.3 519.7,550.4 538.3,561.3 									"/>
									<polygon class="st564" points="534.7,563.1 516.1,552.2 491.9,566.2 510.4,577.2 									"/>
									<polygon class="st564" points="505.7,579.9 487.2,569 462.9,583 481.4,594 									"/>
									<polygon class="st564" points="529.1,593.6 510.6,582.7 486.3,596.7 504.8,607.7 									"/>
									<polygon class="st564" points="552.5,607.5 533.9,596.6 509.6,610.6 528.2,621.6 									"/>
									<polygon class="st564" points="609.6,574.5 591,563.6 566.7,577.6 585.3,588.6 									"/>
									<polygon class="st564" points="557.5,576.8 539,565.8 514.7,579.9 533.2,590.8 									"/>
									<polygon class="st564" points="580.8,590.3 562.2,579.4 537.9,593.5 556.5,604.4 									"/>
									<polygon class="st564" points="586.2,560.5 567.6,549.6 543.3,563.6 561.9,574.6 									"/>
									<polygon class="st564" points="698.3,496 679.2,485.2 599.2,531.3 617.8,542.3 									"/>
									<polygon class="st564" points="647.2,498.5 628.2,487.6 575.6,517.9 594.2,528.8 									"/>
									<polygon class="st564" points="595.6,501.1 576.5,490.1 551.8,504.3 570.4,515.3 									"/>
									<polygon class="st564" points="623.6,485.1 604.5,474.2 579.8,488.4 598.4,499.3 									"/>
									<polygon class="st564" points="652.1,468.8 632.9,457.9 608.3,472.1 626.8,483.1 									"/>
									<polygon class="st564" points="675.3,482.3 656.2,471.4 631.6,485.6 650.1,496.5 									"/>
									<polygon class="st564" points="702.9,466 683.8,455 659.1,469.2 677.7,480.2 									"/>
									<polygon class="st564" points="759.1,434.2 740,423.2 715.3,437.4 733.9,448.4 									"/>
									<polygon class="st564" points="787.3,417.8 768.2,406.9 743.6,421.1 762.1,432.1 									"/>
									<polygon class="st564" points="819.6,371.4 800.5,360.5 775.8,374.7 794.4,385.6 									"/>
									<polygon class="st564" points="792,387.9 772.9,377 748.3,391.2 766.8,402.2 									"/>
									<polygon class="st564" points="763.9,404.1 744.8,393.2 720.2,407.4 738.7,418.4 									"/>
									<polygon class="st564" points="735.6,420.5 716.4,409.6 691.8,423.8 710.3,434.7 									"/>
									<polygon class="st564" points="707.8,436.9 688.6,426 664,440.2 682.5,451.2 									"/>
									<polygon class="st564" points="679.9,452.7 660.7,441.8 636.1,456 654.7,467 									"/>
									<polygon class="st564" points="628.1,454.9 609,444 584.3,458.2 602.9,469.2 									"/>
									<polygon class="st564" points="656.6,438.8 637.5,427.8 612.9,442.1 631.4,453 									"/>
									<polygon class="st564" points="684.4,422.5 665.3,411.6 640.6,425.8 659.2,436.7 									"/>
									<polygon class="st564" points="713.1,406.5 694,395.6 669.3,409.8 687.9,420.8 									"/>
									<polygon class="st564" points="742,389.7 722.9,378.7 698.2,392.9 716.8,403.9 									"/>
									<polygon class="st564" points="769.5,374.1 750.4,363.2 725.8,377.4 744.3,388.4 									"/>
									<polygon class="st564" points="796.7,358 777.5,347.1 752.9,361.3 771.5,372.3 									"/>
									<polygon class="st564" points="774.2,344.6 755,333.6 730.4,347.8 749,358.8 									"/>
									<polygon class="st564" points="747,360.6 727.9,349.7 703.2,363.9 721.8,374.8 									"/>
									<polygon class="st564" points="717.6,377 698.5,366.1 673.8,380.3 692.4,391.2 									"/>
									<polygon class="st564" points="689.7,393.8 670.6,382.9 645.9,397.1 664.5,408 									"/>
									<polygon class="st564" points="661.8,410 642.7,399.1 618,413.3 636.6,424.2 									"/>
									<polygon class="st564" points="633.4,425.9 614.3,414.9 589.7,429.2 608.2,440.1 									"/>
									<polygon class="st564" points="605.9,442 586.8,431.1 562.2,445.3 580.7,456.3 									"/>
									<polygon class="st564" points="599.7,471.8 580.6,460.9 555.9,475.1 574.5,486 									"/>
									<polygon class="st564" points="577.8,458.3 558.7,447.4 534,461.6 552.6,472.6 									"/>
									<polygon class="st564" points="571.3,488.1 552.2,477.2 527.6,491.4 546.1,502.4 									"/>
									<polygon class="st564" points="549.4,475.1 530.3,464.1 505.6,478.3 524.2,489.3 									"/>
									<polygon class="st564" points="842.4,385 824.2,373.9 772.6,404.7 791.1,415.7 									"/>
									<polygon class="st564" points="731,450.2 711.9,439.2 687.2,453.4 705.8,464.4 									"/>
									<polygon class="st564" points="665.6,542.1 646.5,531.2 621.8,545.4 640.4,556.4 									"/>
									<polygon class="st564" points="693.8,525.4 674.7,514.4 650,528.7 668.6,539.6 									"/>
									<polygon class="st564" points="861.9,428.8 842.8,417.8 818.1,432 836.7,443 									"/>
									<polygon class="st564" points="890.9,412.7 871.7,401.7 847.1,415.9 865.7,426.9 									"/>
									<polygon class="st564" points="866.1,399.1 847,388.2 822.3,402.4 840.9,413.4 									"/>
									<polygon class="st564" points="838.4,414.8 819.3,403.9 794.6,418.1 813.2,429 									"/>
									<polygon class="st564" points="810.7,431.2 791.5,420.2 766.9,434.4 785.4,445.4 									"/>
									<polygon class="st564" points="781.8,448.1 762.7,437.1 738.1,451.3 756.6,462.3 									"/>
									<polygon class="st564" points="753.8,463.4 734.7,452.5 710.1,466.7 728.6,477.7 									"/>
									<polygon class="st564" points="726.2,480.4 707.1,469.5 682.4,483.7 701,494.6 									"/>
									<polygon class="st564" points="833.1,445.4 814.1,434.7 678.6,512.9 696.6,523.5 									"/>
									<polygon class="st564" points="482.5,566.6 463.9,555.7 439.6,569.7 458.2,580.7 									"/>
									<polygon class="st564" points="459.7,552.3 441.1,541.3 416.8,555.4 435.4,566.3 									"/>
									<polygon class="st564" points="492.8,506.8 474.3,495.9 450,509.9 468.5,520.9 									"/>
									<polygon class="st564" points="800.5,531.2 750,502.4 678.6,543.8 726,573.1 									"/>
								</g>
								<polygon class="st32" points="328.3,245.7 328.3,495.6 710.1,279.4 712.6,24 								"/>
								<path class="st565" d="M521.1,123.4c-0.8,2-0.4,4.1,0.9,4.7c1.4,0.6,3.1-0.6,4-2.6c0.8-2,0.4-4.1-0.9-4.7
									C523.8,120.2,522,121.4,521.1,123.4z"/>
							</g>
						</g>
						<g>
							<defs>
								<polygon id="SVGID_523_" points="328.3,245.7 328.3,495.6 710.1,279.4 712.6,24 								"/>
							</defs>
							<clipPath id="SVGID_7_">
								<use xlink:href="#SVGID_523_"  style="overflow:visible;"/>
							</clipPath>
						</g>
					</g>
					
						<linearGradient id="SVGID_8_" gradientUnits="userSpaceOnUse" x1="-5441.8687" y1="190.5748" x2="-5106.1025" y2="479.4892" gradientTransform="matrix(-1 0 0 1 -4800.9629 0)">
						<stop  offset="0" style="stop-color:#FFFFFF;stop-opacity:0"/>
						<stop  offset="0.9929" style="stop-color:#FFFFFF"/>
					</linearGradient>
					<polygon style="opacity:0.63;fill:url(#SVGID_8_);" points="640.6,318.7 328.3,347.5 328.3,314 700.5,284.9 					"/>
					
						<linearGradient id="SVGID_10_" gradientUnits="userSpaceOnUse" x1="-5459.8203" y1="132.5931" x2="-5113.5859" y2="430.5152" gradientTransform="matrix(-1 0 0 1 -4800.9629 0)">
						<stop  offset="0" style="stop-color:#FFFFFF;stop-opacity:0"/>
						<stop  offset="0.9929" style="stop-color:#FFFFFF"/>
					</linearGradient>
					<polygon style="opacity:0.63;fill:url(#SVGID_10_);" points="328.3,284.9 710.1,259.8 710.1,217.9 328.3,245.7 					"/>
				</g>
				<g>
					<g>
						<polygon class="st569" points="158.9,365.8 159.1,570.3 408,429.2 407.9,226.4 						"/>
						<polygon class="st561" points="408.3,225.7 408.3,244.7 159.3,386 159.3,365 						"/>
						<polygon class="st570" points="392.1,297.8 391.7,285.3 260.9,358 261.4,371.5 						"/>
						<polygon class="st570" points="351.8,409.4 351.8,422.7 272,468 272,454.7 						"/>
						<polygon class="st570" points="399.2,406 399.3,419.3 319.5,464.7 319.5,451.4 						"/>
						<polygon class="st570" points="223.1,479.1 223.2,493.7 169.4,527.5 169.4,512.8 						"/>
						<polygon class="st570" points="225.5,502 225.5,516.7 171.7,550.4 171.7,535.7 						"/>
						<polygon class="st570" points="397.9,383.9 398,397.2 358.1,419.9 358.1,406.6 						"/>
						<linearGradient id="SVGID_11_" gradientUnits="userSpaceOnUse" x1="169.3783" y1="438.4191" x2="223.1574" y2="438.4191">
							<stop  offset="0" style="stop-color:#469D4D"/>
							<stop  offset="1" style="stop-color:#46B54D"/>
						</linearGradient>
						<polygon style="fill:url(#SVGID_11_);" points="222.8,466.8 223.2,377.5 169.4,407.4 169.4,499.3 						"/>
						<path class="st569" d="M390,245c0,1.2,0.9,2.1,2.1,2.1c1.2,0,2.1-0.9,2.1-2.1c0-1.2-0.9-2.1-2.1-2.1
							C390.9,242.9,390,243.9,390,245z"/>
						<path class="st569" d="M383.5,248c0,1.2,0.9,2.1,2.1,2.1c1.2,0,2.1-0.9,2.1-2.1c0-1.2-0.9-2.1-2.1-2.1
							C384.5,245.9,383.5,246.9,383.5,248z"/>
						<path class="st569" d="M395.8,242.1c0,1.2,0.9,2.1,2.1,2.1c1.2,0,2.1-0.9,2.1-2.1c0-1.2-0.9-2.1-2.1-2.1
							C396.7,240,395.8,240.9,395.8,242.1z"/>
						<linearGradient id="SVGID_12_" gradientUnits="userSpaceOnUse" x1="236.4411" y1="400.845" x2="395.7684" y2="400.845">
							<stop  offset="0" style="stop-color:#469D4D"/>
							<stop  offset="1" style="stop-color:#46B54D"/>
						</linearGradient>
						<path style="fill:url(#SVGID_12_);" d="M236.4,460.2c0,0,11.5-59.3,28-62.1c16.5-2.7,12.1,17.6,25.8,9.9
							c13.7-7.7,14.6-56.6,31.7-56.6c0,0,9-3.3,13.4,13.8c4.4,17,9.3,25.5,19.8,16.3c10.4-9.2,13.2-38.8,23.6-39.9
							c10.4-1.1,17,22.5,17,27.5L236.4,460.2z"/>
					</g>
					<g>
						<g>
							<g>
								<path class="st570" d="M159.3,382.2c0.1,0,0.2,1.3,0.3,3.9c0.1,2.5,0.2,6.3,0.2,11.1c0.1,9.6,0.3,23.5,0.3,40.7
									c0.2,34.4,0.2,81.8,0.1,134.3c0,0.8,0,1.5,0,2.2l-2.1-1.2c44.7-26.4,85.2-50.2,114.5-67.2c14.7-8.5,26.6-15.4,34.8-20.1
									c4.1-2.3,7.3-4.1,9.5-5.3c2.2-1.2,3.4-1.8,3.4-1.7c0,0.1-1,0.8-3.1,2.2c-2.1,1.3-5.2,3.3-9.3,5.8
									c-8.1,5-19.8,12.1-34.3,20.8c-29.1,17.5-69.4,41.5-114.1,67.9l-2.1,1.3l0-2.5c0-0.7,0-1.5,0-2.2
									c0.1-52.4,0.4-99.9,0.7-134.3c0.2-17.2,0.4-31.1,0.5-40.7c0.1-4.8,0.2-8.5,0.3-11.1C159.1,383.5,159.2,382.2,159.3,382.2z"
									/>
							</g>
						</g>
					</g>
				</g>
			</g>
			<g>
				<g>
					<linearGradient id="SVGID_13_" gradientUnits="userSpaceOnUse" x1="787.7116" y1="253.7496" x2="810.2665" y2="253.7496">
						<stop  offset="0" style="stop-color:#469D4D"/>
						<stop  offset="1" style="stop-color:#46B54D"/>
					</linearGradient>
					<path style="fill:url(#SVGID_13_);" d="M799,242.5c6.2,0,11.3,5.1,11.3,11.3c0,6.2-5.1,11.3-11.3,11.3
						c-6.2,0-11.3-5.1-11.3-11.3C787.7,247.5,792.8,242.5,799,242.5z M799,261.3c4.2,0,7.5-3.4,7.5-7.5c0-4.2-3.4-7.5-7.5-7.5
						s-7.5,3.4-7.5,7.5C791.4,257.9,794.8,261.3,799,261.3z"/>
					<linearGradient id="SVGID_14_" gradientUnits="userSpaceOnUse" x1="235.5522" y1="241.6909" x2="265.1564" y2="241.6909">
						<stop  offset="0" style="stop-color:#469D4D"/>
						<stop  offset="1" style="stop-color:#46B54D"/>
					</linearGradient>
					<path style="fill:url(#SVGID_14_);" d="M250.4,226.9c8.2,0,14.8,6.6,14.8,14.8c0,8.2-6.6,14.8-14.8,14.8s-14.8-6.6-14.8-14.8
						C235.6,233.5,242.2,226.9,250.4,226.9z M250.4,252.8c6.1,0,11.1-5,11.1-11.1c0-6.1-5-11.1-11.1-11.1s-11.1,5-11.1,11.1
						C239.3,247.8,244.3,252.8,250.4,252.8z"/>
					<linearGradient id="SVGID_15_" gradientUnits="userSpaceOnUse" x1="884.5464" y1="198.7317" x2="953.5291" y2="198.7317">
						<stop  offset="0" style="stop-color:#469D4D"/>
						<stop  offset="1" style="stop-color:#46B54D"/>
					</linearGradient>
					<path style="fill:url(#SVGID_15_);" d="M919,164.2c19,0,34.5,15.5,34.5,34.5c0,19-15.5,34.5-34.5,34.5
						c-19,0-34.5-15.5-34.5-34.5C884.5,179.7,900,164.2,919,164.2z M919,229.5c17,0,30.8-13.8,30.8-30.8c0-17-13.8-30.8-30.8-30.8
						c-17,0-30.8,13.8-30.8,30.8C888.3,215.7,902.1,229.5,919,229.5z"/>
					<g>
						<path class="st32" d="M370.3,650.8h17.1c1,0,1.9,0.8,1.9,1.9s-0.8,1.9-1.9,1.9h-17.1c-1,0-1.9-0.8-1.9-1.9
							S369.3,650.8,370.3,650.8z"/>
						<path class="st32" d="M378.9,642.3c1,0,1.9,0.8,1.9,1.9v17.1c0,1-0.8,1.9-1.9,1.9s-1.9-0.8-1.9-1.9v-17.1
							C377,643.1,377.9,642.3,378.9,642.3z"/>
					</g>
					<g>
						<linearGradient id="SVGID_16_" gradientUnits="userSpaceOnUse" x1="98.1759" y1="132.3551" x2="119.0146" y2="132.3551">
							<stop  offset="0" style="stop-color:#469D4D"/>
							<stop  offset="1" style="stop-color:#46B54D"/>
						</linearGradient>
						<path style="fill:url(#SVGID_16_);" d="M100,130.5h17.1c1,0,1.9,0.8,1.9,1.9s-0.8,1.9-1.9,1.9H100c-1,0-1.9-0.8-1.9-1.9
							S99,130.5,100,130.5z"/>
						<linearGradient id="SVGID_17_" gradientUnits="userSpaceOnUse" x1="106.7302" y1="132.3548" x2="110.4635" y2="132.3548">
							<stop  offset="0" style="stop-color:#469D4D"/>
							<stop  offset="1" style="stop-color:#46B54D"/>
						</linearGradient>
						<path style="fill:url(#SVGID_17_);" d="M108.6,121.9c1,0,1.9,0.8,1.9,1.9v17.1c0,1-0.8,1.9-1.9,1.9c-1,0-1.9-0.8-1.9-1.9
							v-17.1C106.7,122.8,107.6,121.9,108.6,121.9z"/>
					</g>
					<g>
						<linearGradient id="SVGID_18_" gradientUnits="userSpaceOnUse" x1="913.2147" y1="323.7804" x2="929.7248" y2="323.7804">
							<stop  offset="0" style="stop-color:#469D4D"/>
							<stop  offset="1" style="stop-color:#46B54D"/>
						</linearGradient>
						<path style="fill:url(#SVGID_18_);" d="M916.3,316.7l12.8,11.4c0.8,0.7,0.8,1.9,0.2,2.6c-0.7,0.8-1.9,0.8-2.6,0.2l-12.8-11.4
							c-0.8-0.7-0.8-1.9-0.2-2.6C914.4,316.1,915.6,316,916.3,316.7z"/>
						<linearGradient id="SVGID_19_" gradientUnits="userSpaceOnUse" x1="913.9155" y1="323.7806" x2="929.0251" y2="323.7806">
							<stop  offset="0" style="stop-color:#469D4D"/>
							<stop  offset="1" style="stop-color:#46B54D"/>
						</linearGradient>
						<path style="fill:url(#SVGID_19_);" d="M928.4,316c0.8,0.7,0.8,1.9,0.2,2.6l-11.4,12.8c-0.7,0.8-1.9,0.8-2.6,0.2
							s-0.8-1.9-0.2-2.6l11.4-12.8C926.4,315.4,927.6,315.3,928.4,316z"/>
					</g>
				</g>
			</g>
		</g>
	</g>
</g>
<g id="Layer_2" class="st580">
	<linearGradient id="SVGID_20_" gradientUnits="userSpaceOnUse" x1="-816.2094" y1="1673.7076" x2="692.3265" y2="-939.1533">
		<stop  offset="1.241987e-03" style="stop-color:#006DFF"/>
		<stop  offset="0.7306" style="stop-color:#62B2DC"/>
	</linearGradient>
	<rect x="-1527.1" y="-528.7" style="display:inline;opacity:0.9;fill:url(#SVGID_20_);" width="2930.3" height="1792"/>
	<g class="st582">
		<g class="st583">
			
				<image style="overflow:visible;" width="1458" height="868" xlink:href="62E0FAC4F1F0FC9.png"  transform="matrix(1 0 0 1 -792.1621 -66.7228)">
			</image>
		</g>
		<g>
			<defs>
				<rect id="SVGID_537_" x="-733.9" y="-29" width="1366" height="768"/>
			</defs>
			<clipPath id="SVGID_21_">
				<use xlink:href="#SVGID_537_"  style="overflow:visible;"/>
			</clipPath>
			<rect x="-742.1" y="-54.2" style="clip-path:url(#SVGID_21_);fill:#FFFFFF;" width="1385.3" height="886.8"/>
			
				<linearGradient id="SVGID_22_" gradientUnits="userSpaceOnUse" x1="-4422.0757" y1="-185.1905" x2="-5033.7725" y2="545.4835" gradientTransform="matrix(-1 0 0 1 -5154.6489 0)">
				<stop  offset="1.241987e-03" style="stop-color:#006DFF"/>
				<stop  offset="0.7306" style="stop-color:#62B2DC"/>
			</linearGradient>
			<path style="opacity:0.15;clip-path:url(#SVGID_21_);fill:url(#SVGID_22_);" d="M-742.1-54.2v796.6
				c122.6,52.9,277.7,29.9,376.6-58.8c30.6-27.5,56.8-61,93.6-80.1c80.8-42.1,195.2-6.9,261.1-68.7c56.9-53.4,41.7-147.6,84.2-212.4
				c18.4-28.1,43.2-52.3,70.3-72.9c98.7-75,108.7-244.7,9.9-303.7H-742.1z"/>
			
				<linearGradient id="SVGID_23_" gradientUnits="userSpaceOnUse" x1="-4427.022" y1="-166.8529" x2="-5049.0894" y2="576.2087" gradientTransform="matrix(-1 0 0 1 -5154.6489 0)">
				<stop  offset="1.241987e-03" style="stop-color:#006DFF"/>
				<stop  offset="0.7306" style="stop-color:#62B2DC"/>
			</linearGradient>
			<path style="opacity:5.000000e-02;clip-path:url(#SVGID_21_);fill:url(#SVGID_23_);" d="M-739.3-32l-2.7,796.9
				c122.4,53.4,299.9,36.4,398.5-53.1c30.6-27.8,56.7-61.5,93.4-80.8c80.6-42.4,194.8-6.9,260.5-69.3
				C67.2,507.9,52.1,413,94.5,347.7c18.4-28.4,43.1-52.7,70.1-73.5c98.5-75.6,85.7-269-12.8-328.4L-739.3-32z"/>
		</g>
		<text transform="matrix(1 0 0 1 107.4048 234.1036)" class="st595 st556 st678">Iniciar sesión</text>
		<g>
			<path class="st595" d="M322.3,508.6H211.6c-7,0-12.6-5.6-12.6-12.6v-23.3c0-7,5.6-12.6,12.6-12.6h110.8c7,0,12.6,5.6,12.6,12.6
				V496C334.9,503,329.3,508.6,322.3,508.6z"/>
			<text transform="matrix(1 0 0 1 227.2256 490.9627)" class="st18 st558 st679">Ingresar</text>
		</g>
		<g>
			<g>
				<text transform="matrix(1 0 0 1 29.4033 433.6505)" class="st595 st558 st680" style="text-decoration: underline;">¿Olvidaste tu contraseña?</text>
			</g>
			<g>
				<g>
					<path class="st120" d="M528.3,319.8H6.6c-7,0-12.6-5.6-12.6-12.6v-23.3c0-7,5.6-12.6,12.6-12.6h521.8c7,0,12.6,5.6,12.6,12.6
						v23.3C540.9,314.1,535.3,319.8,528.3,319.8z"/>
					<path class="st120" d="M528.3,407.6H6.6C-0.4,407.6-6,402-6,395l0-23.3c0-7,5.6-12.6,12.6-12.6h521.8c7,0,12.6,5.6,12.6,12.6
						V395C540.9,402,535.3,407.6,528.3,407.6z"/>
					<path class="st681" d="M528.3,319.8H6.6c-7,0-12.6-5.6-12.6-12.6v-23.3c0-7,5.6-12.6,12.6-12.6h521.8c7,0,12.6,5.6,12.6,12.6
						v23.3C540.9,314.1,535.3,319.8,528.3,319.8z"/>
					<path class="st681" d="M528.3,407.6H6.6C-0.4,407.6-6,402-6,395l0-23.3c0-7,5.6-12.6,12.6-12.6h521.8c7,0,12.6,5.6,12.6,12.6
						V395C540.9,402,535.3,407.6,528.3,407.6z"/>
				</g>
				<text transform="matrix(1 0 0 1 31.4043 305.4297)" class="st682 st683 st684">Email</text>
				<text transform="matrix(1 0 0 1 31.4043 391.3389)" class="st682 st683 st684">Contraseña</text>
			</g>
		</g>
	</g>
</g>
</svg>
