<svg xmlns="http://www.w3.org/2000/svg" xmlns:xlink="http://www.w3.org/1999/xlink" viewBox="0 0 1456.32 416.22"><defs><linearGradient id="a546e653-c519-4077-b5fd-7d9a93929ad5" x1="204.81" y1="658.61" x2="356.63" y2="658.61" gradientUnits="userSpaceOnUse"><stop offset="0" stop-color="#fff"/><stop offset="0.48" stop-color="#a6d97f"/><stop offset="0.9" stop-color="#c4e7a6"/></linearGradient><linearGradient id="92c53bb7-872e-47d2-968d-8be69d606e65" x1="204.81" y1="565.51" x2="363.17" y2="565.51" xlink:href="#a546e653-c519-4077-b5fd-7d9a93929ad5"/><linearGradient id="d89276b7-9188-4809-9091-eb6a491c2000" x1="204.81" y1="563.6" x2="363.17" y2="563.6" xlink:href="#a546e653-c519-4077-b5fd-7d9a93929ad5"/><linearGradient id="1dcb9019-4c2b-4ff5-8ae9-7501a541535d" x1="204.81" y1="561.73" x2="363.17" y2="561.73" xlink:href="#a546e653-c519-4077-b5fd-7d9a93929ad5"/><linearGradient id="7abacd30-6757-48c0-8f09-b03ee2ed52cd" x1="204.81" y1="567.47" x2="363.17" y2="567.47" xlink:href="#a546e653-c519-4077-b5fd-7d9a93929ad5"/><linearGradient id="fc11e51b-816f-4926-9633-ce189020a4b2" x1="204.81" y1="582.25" x2="363.17" y2="582.25" xlink:href="#a546e653-c519-4077-b5fd-7d9a93929ad5"/><linearGradient id="fc339a19-a24e-4a9b-822e-7384a505fef6" x1="204.81" y1="594.96" x2="363.17" y2="594.96" xlink:href="#a546e653-c519-4077-b5fd-7d9a93929ad5"/><linearGradient id="1eb80492-e242-4bfc-95f8-fb9e432f7f16" x1="204.81" y1="590.65" x2="363.17" y2="590.65" xlink:href="#a546e653-c519-4077-b5fd-7d9a93929ad5"/><linearGradient id="d08e5f7d-0c4e-4f87-9614-9da266049614" x1="204.81" y1="588.53" x2="363.17" y2="588.53" xlink:href="#a546e653-c519-4077-b5fd-7d9a93929ad5"/><linearGradient id="d84fe43e-2116-4a4f-872c-a862df2e2b4e" x1="204.81" y1="599.39" x2="363.17" y2="599.39" xlink:href="#a546e653-c519-4077-b5fd-7d9a93929ad5"/><linearGradient id="13599387-9497-45eb-a9c4-ecf6d7082d6c" x1="300.93" y1="604.51" x2="372.89" y2="604.51" xlink:href="#a546e653-c519-4077-b5fd-7d9a93929ad5"/><linearGradient id="7d38fbf8-4815-463d-a1bf-a628fe8cc115" x1="204.81" y1="569.61" x2="363.17" y2="569.61" xlink:href="#a546e653-c519-4077-b5fd-7d9a93929ad5"/><linearGradient id="24eaaeda-c10d-4b34-a16b-9c0541e352d4" x1="204.81" y1="586.42" x2="363.17" y2="586.42" xlink:href="#a546e653-c519-4077-b5fd-7d9a93929ad5"/><linearGradient id="b4eefc7a-eb45-41dc-985a-846b3b4b6cfb" x1="204.81" y1="597.14" x2="363.17" y2="597.14" xlink:href="#a546e653-c519-4077-b5fd-7d9a93929ad5"/><linearGradient id="af7573b2-ca13-439d-be61-358fd97902b9" x1="204.81" y1="574.08" x2="363.17" y2="574.08" xlink:href="#a546e653-c519-4077-b5fd-7d9a93929ad5"/><linearGradient id="640f992a-4311-446a-a27f-804e9fd5c1da" x1="204.81" y1="572.03" x2="363.17" y2="572.03" xlink:href="#a546e653-c519-4077-b5fd-7d9a93929ad5"/><linearGradient id="51b05519-546e-42e7-9c6d-5be6fd363ec0" x1="204.81" y1="576.11" x2="363.17" y2="576.11" xlink:href="#a546e653-c519-4077-b5fd-7d9a93929ad5"/><linearGradient id="f3ba9ea2-7a5e-4d4c-8c66-ba904e3ecb96" x1="204.81" y1="580.19" x2="363.17" y2="580.19" xlink:href="#a546e653-c519-4077-b5fd-7d9a93929ad5"/><linearGradient id="932e4bb8-d9e2-459f-b013-96e59bb45f44" x1="204.81" y1="578.15" x2="363.17" y2="578.15" xlink:href="#a546e653-c519-4077-b5fd-7d9a93929ad5"/><linearGradient id="dfc64b04-aab1-4bc4-97f7-ec5463ead8de" x1="204.81" y1="559.88" x2="363.17" y2="559.88" xlink:href="#a546e653-c519-4077-b5fd-7d9a93929ad5"/><linearGradient id="2f46eb79-7e16-4bd6-83cb-75053986926a" x1="204.81" y1="584.33" x2="363.17" y2="584.33" xlink:href="#a546e653-c519-4077-b5fd-7d9a93929ad5"/><linearGradient id="a4fd1750-2e52-44c2-a567-d58b758f5ec4" x1="204.81" y1="592.8" x2="363.17" y2="592.8" xlink:href="#a546e653-c519-4077-b5fd-7d9a93929ad5"/><linearGradient id="6377cb5d-cfff-4e53-ac82-3a60ab7ae51f" x1="204.81" y1="518.47" x2="363.17" y2="518.47" xlink:href="#a546e653-c519-4077-b5fd-7d9a93929ad5"/><linearGradient id="1802278a-5c60-494f-8047-73cc10faf722" x1="204.81" y1="519.33" x2="363.17" y2="519.33" xlink:href="#a546e653-c519-4077-b5fd-7d9a93929ad5"/><linearGradient id="0eed42e8-94bb-4d84-8069-0d9d3ba19868" x1="204.81" y1="517.65" x2="363.17" y2="517.65" xlink:href="#a546e653-c519-4077-b5fd-7d9a93929ad5"/><linearGradient id="6ea5ef63-c9d6-4f3d-b257-1964dcf800f0" x1="204.81" y1="520.23" x2="363.17" y2="520.23" xlink:href="#a546e653-c519-4077-b5fd-7d9a93929ad5"/><linearGradient id="afa1a28c-4ff9-4432-9126-265d95bde902" x1="204.81" y1="516.87" x2="363.17" y2="516.87" xlink:href="#a546e653-c519-4077-b5fd-7d9a93929ad5"/><linearGradient id="af8b481c-be06-4706-bb63-05169a845900" x1="204.81" y1="523.7" x2="363.17" y2="523.7" xlink:href="#a546e653-c519-4077-b5fd-7d9a93929ad5"/><linearGradient id="261b0428-8bc3-474b-a2b7-ab41b4766b21" x1="204.81" y1="524.78" x2="363.17" y2="524.78" xlink:href="#a546e653-c519-4077-b5fd-7d9a93929ad5"/><linearGradient id="3d62089d-28fc-4839-bd57-c6c9841e3db0" x1="204.81" y1="525.9" x2="363.17" y2="525.9" xlink:href="#a546e653-c519-4077-b5fd-7d9a93929ad5"/><linearGradient id="a97bb7c3-732f-4765-b92d-3b3ca753d9b5" x1="204.81" y1="522.43" x2="363.17" y2="522.43" xlink:href="#a546e653-c519-4077-b5fd-7d9a93929ad5"/><linearGradient id="be148fda-c058-462c-a9fc-5c2bcf84ddd1" x1="204.81" y1="521.18" x2="363.17" y2="521.18" xlink:href="#a546e653-c519-4077-b5fd-7d9a93929ad5"/><linearGradient id="2ca5beae-140c-4567-9ab5-b1f87ec7a1eb" x1="204.81" y1="516.13" x2="363.17" y2="516.13" xlink:href="#a546e653-c519-4077-b5fd-7d9a93929ad5"/><linearGradient id="0741105f-a923-4c08-bb91-1fa8f8dcef7f" x1="204.81" y1="512.67" x2="363.17" y2="512.67" xlink:href="#a546e653-c519-4077-b5fd-7d9a93929ad5"/><linearGradient id="4ce617aa-34e1-412a-b195-34a739a35aa9" x1="204.81" y1="537.63" x2="363.17" y2="537.63" xlink:href="#a546e653-c519-4077-b5fd-7d9a93929ad5"/><linearGradient id="511a2065-5fcb-4c50-9706-ef8706210807" x1="204.81" y1="512.08" x2="363.17" y2="512.08" xlink:href="#a546e653-c519-4077-b5fd-7d9a93929ad5"/><linearGradient id="096a6b1f-06f3-49db-8d19-3047c0909e7d" x1="204.81" y1="513.64" x2="363.17" y2="513.64" xlink:href="#a546e653-c519-4077-b5fd-7d9a93929ad5"/><linearGradient id="11b30415-570d-4c31-afda-0a88c9a113bf" x1="204.81" y1="514.19" x2="363.17" y2="514.19" xlink:href="#a546e653-c519-4077-b5fd-7d9a93929ad5"/><linearGradient id="dfb72d85-f225-4814-b87d-bfbfca68dfd8" x1="204.81" y1="514.79" x2="363.17" y2="514.79" xlink:href="#a546e653-c519-4077-b5fd-7d9a93929ad5"/><linearGradient id="edfde20c-7ce7-4868-835d-c6bc78c498ef" x1="204.81" y1="513.13" x2="363.17" y2="513.13" xlink:href="#a546e653-c519-4077-b5fd-7d9a93929ad5"/><linearGradient id="5aad65d8-7e4a-4599-b865-74010d75edec" x1="204.81" y1="515.44" x2="363.17" y2="515.44" xlink:href="#a546e653-c519-4077-b5fd-7d9a93929ad5"/><linearGradient id="452ed83d-d2e7-4574-86eb-8bd79df95bfd" x1="204.81" y1="529.49" x2="363.17" y2="529.49" xlink:href="#a546e653-c519-4077-b5fd-7d9a93929ad5"/><linearGradient id="03917174-e43e-4bf6-8427-b32bf686a4c0" x1="204.81" y1="549.32" x2="363.17" y2="549.32" xlink:href="#a546e653-c519-4077-b5fd-7d9a93929ad5"/><linearGradient id="b040a118-7b2b-4655-9051-6f39098a83b5" x1="204.81" y1="547.65" x2="363.17" y2="547.65" xlink:href="#a546e653-c519-4077-b5fd-7d9a93929ad5"/><linearGradient id="29847853-53d0-454b-9bb6-94b584b196cc" x1="204.81" y1="542.23" x2="363.17" y2="542.23" xlink:href="#a546e653-c519-4077-b5fd-7d9a93929ad5"/><linearGradient id="5c4f41e8-0bf5-41ed-8dd0-dd8aa5c30401" x1="204.81" y1="544.36" x2="363.17" y2="544.36" xlink:href="#a546e653-c519-4077-b5fd-7d9a93929ad5"/><linearGradient id="03e07ce2-dc4a-4d1b-96c9-a5348fb50407" x1="204.81" y1="546" x2="363.17" y2="546" xlink:href="#a546e653-c519-4077-b5fd-7d9a93929ad5"/><linearGradient id="b485b877-9257-4612-b362-9c7576ba4863" x1="204.81" y1="554.48" x2="363.17" y2="554.48" xlink:href="#a546e653-c519-4077-b5fd-7d9a93929ad5"/><linearGradient id="96adc2ce-a18f-4df2-bb23-d795bec593ab" x1="204.81" y1="556.26" x2="363.17" y2="556.26" xlink:href="#a546e653-c519-4077-b5fd-7d9a93929ad5"/><linearGradient id="f6789f7a-9aaf-470f-a81d-346663ecee05" x1="204.81" y1="551.02" x2="363.17" y2="551.02" xlink:href="#a546e653-c519-4077-b5fd-7d9a93929ad5"/><linearGradient id="8f60d6cb-1a9c-4239-a252-8f465b398c35" x1="204.81" y1="552.74" x2="363.17" y2="552.74" xlink:href="#a546e653-c519-4077-b5fd-7d9a93929ad5"/><linearGradient id="e12e3f67-9791-45c6-b1c9-a16c797db65a" x1="204.81" y1="539.11" x2="363.17" y2="539.11" xlink:href="#a546e653-c519-4077-b5fd-7d9a93929ad5"/><linearGradient id="974e5369-c398-4ef9-8ebc-8b9f46367073" x1="204.81" y1="558.05" x2="363.17" y2="558.05" xlink:href="#a546e653-c519-4077-b5fd-7d9a93929ad5"/><linearGradient id="29606808-ae5a-4520-bc1f-679890394527" x1="204.81" y1="540.63" x2="363.17" y2="540.63" xlink:href="#a546e653-c519-4077-b5fd-7d9a93929ad5"/><linearGradient id="8be6cf20-c216-4576-9ce9-8241028de86f" x1="204.81" y1="532.07" x2="363.17" y2="532.07" xlink:href="#a546e653-c519-4077-b5fd-7d9a93929ad5"/><linearGradient id="f821ad50-799e-47a7-803e-2ca98f68c92c" x1="204.81" y1="528.26" x2="363.17" y2="528.26" xlink:href="#a546e653-c519-4077-b5fd-7d9a93929ad5"/><linearGradient id="1576a26f-83d1-4f06-bc11-1de99a90f7e0" x1="204.81" y1="530.76" x2="363.17" y2="530.76" xlink:href="#a546e653-c519-4077-b5fd-7d9a93929ad5"/><linearGradient id="2e8dac84-709a-43ef-b00e-ea15b80312b1" x1="204.81" y1="527.07" x2="363.17" y2="527.07" xlink:href="#a546e653-c519-4077-b5fd-7d9a93929ad5"/><linearGradient id="16892bf7-fb40-42e5-b41f-ccfd268a657e" x1="204.81" y1="536.19" x2="363.17" y2="536.19" xlink:href="#a546e653-c519-4077-b5fd-7d9a93929ad5"/><linearGradient id="96a947e3-b194-4b58-aaf5-0a96de965211" x1="204.81" y1="533.41" x2="363.17" y2="533.41" xlink:href="#a546e653-c519-4077-b5fd-7d9a93929ad5"/><linearGradient id="ca7766b3-e13f-49f5-942b-e60d93d83ff4" x1="204.81" y1="534.78" x2="363.17" y2="534.78" xlink:href="#a546e653-c519-4077-b5fd-7d9a93929ad5"/><linearGradient id="aab4a589-c657-41c3-9163-5d64ad63c4aa" x1="215.98" y1="572.8" x2="439.05" y2="572.8" gradientUnits="userSpaceOnUse"><stop offset="0" stop-color="#fff"/><stop offset="1" stop-color="#6cb2d3"/></linearGradient><linearGradient id="df415da3-c5dd-4b2a-9516-8704ecc62c38" x1="140.75" y1="625.46" x2="253.83" y2="625.46" gradientUnits="userSpaceOnUse"><stop offset="0.1" stop-color="#ff9e0e"/><stop offset="1" stop-color="#fff"/></linearGradient><linearGradient id="7837e861-278b-4e7c-8bbe-a7f0c90e7312" x1="84.01" y1="387.07" x2="208.33" y2="387.07" gradientUnits="userSpaceOnUse"><stop offset="0.03" stop-color="#dc2f48"/><stop offset="0.45" stop-color="#dc2f48"/><stop offset="0.52" stop-color="#dc2f48"/><stop offset="0.57" stop-color="#de3a51"/><stop offset="0.65" stop-color="#e3566a"/><stop offset="0.76" stop-color="#ea8492"/><stop offset="0.89" stop-color="#f5c2ca"/><stop offset="1" stop-color="#fff"/></linearGradient><linearGradient id="1a1c8762-58a8-459d-9b4e-d7419e028983" x1="211.95" y1="605.77" x2="313.65" y2="605.77" gradientUnits="userSpaceOnUse"><stop offset="0" stop-color="#fff"/><stop offset="0.83" stop-color="#ff9e0e"/></linearGradient><linearGradient id="7b054975-2790-4c8f-adf2-7e743eff1ac6" x1="204.81" y1="681.15" x2="363.17" y2="681.15" xlink:href="#a546e653-c519-4077-b5fd-7d9a93929ad5"/><linearGradient id="278aa5d0-01fd-4820-ac9d-771b55785ac8" x1="204.81" y1="690.49" x2="363.17" y2="690.49" xlink:href="#a546e653-c519-4077-b5fd-7d9a93929ad5"/><linearGradient id="454bc8d1-2941-440a-8e44-b6fc42f083a0" x1="204.81" y1="628.53" x2="363.17" y2="628.53" xlink:href="#a546e653-c519-4077-b5fd-7d9a93929ad5"/><linearGradient id="7b8eadf5-7f17-4ce5-94de-7daa059b7590" x1="204.81" y1="695.23" x2="363.17" y2="695.23" xlink:href="#a546e653-c519-4077-b5fd-7d9a93929ad5"/><linearGradient id="767abf47-2c92-41da-bda1-96ab251682dc" x1="204.81" y1="689.27" x2="363.17" y2="689.27" xlink:href="#a546e653-c519-4077-b5fd-7d9a93929ad5"/><linearGradient id="4e2f3dd0-eb50-4b35-ac56-3511e3c8218a" x1="204.81" y1="696.76" x2="363.17" y2="696.76" xlink:href="#a546e653-c519-4077-b5fd-7d9a93929ad5"/><linearGradient id="2d89f31e-27c9-485a-94bd-5db47763f07b" x1="204.81" y1="693.21" x2="363.17" y2="693.21" xlink:href="#a546e653-c519-4077-b5fd-7d9a93929ad5"/><linearGradient id="0152de82-7ec1-4878-89c5-2e4570c71431" x1="204.81" y1="693.74" x2="363.17" y2="693.74" xlink:href="#a546e653-c519-4077-b5fd-7d9a93929ad5"/><linearGradient id="81430168-ebf6-4707-b5bc-8ddda1020950" x1="204.82" y1="675.62" x2="363.17" y2="675.62" xlink:href="#a546e653-c519-4077-b5fd-7d9a93929ad5"/><linearGradient id="829bbc2c-b03e-4931-9cba-057440fb6c5b" x1="204.81" y1="625.33" x2="363.17" y2="625.33" xlink:href="#a546e653-c519-4077-b5fd-7d9a93929ad5"/><linearGradient id="7a53404a-0f3b-4b76-b1bd-3cb8d8716e70" x1="204.81" y1="679.34" x2="363.17" y2="679.34" xlink:href="#a546e653-c519-4077-b5fd-7d9a93929ad5"/><linearGradient id="35206fd0-b7d8-4b93-9a97-07b49daefac4" x1="204.81" y1="696.37" x2="363.17" y2="696.37" xlink:href="#a546e653-c519-4077-b5fd-7d9a93929ad5"/><linearGradient id="06b99d06-c624-4faa-9f01-034cdaffec5e" x1="417.49" y1="579.2" x2="259.14" y2="579.2" gradientUnits="userSpaceOnUse"><stop offset="0.13" stop-color="#6cb2d3"/><stop offset="0.8" stop-color="#fff"/></linearGradient><linearGradient id="7bfbeb9a-e58d-4bb6-90b2-f59ad875110a" x1="189.42" y1="478.66" x2="251.64" y2="478.66" xlink:href="#7837e861-278b-4e7c-8bbe-a7f0c90e7312"/></defs><title>Idukay</title><g style="isolation:isolate"><g id="10b3b7f2-f00c-4474-822b-831b4e23e25c" data-name="LOGO"><path d="M563.44,393A26.62,26.62,0,0,0,544.23,401a27.29,27.29,0,0,0,0,38.59,27.28,27.28,0,0,0,46.56-19.22A27.4,27.4,0,0,0,563.44,393Z" transform="translate(-83.68 -339.55)" style="fill:#666"/><rect x="459.09" y="118.5" width="41.47" height="179.23" style="fill:#666"/><path d="M750.6,471.37a82.24,82.24,0,0,0-12.21-7.9A85.59,85.59,0,0,0,698.25,454C673,454,651,463.21,633,481.39s-27,40.31-27,65.84c0,26,9,48.4,26.76,66.59s39.66,27.53,64.88,27.53a88.51,88.51,0,0,0,39.47-8.93,90,90,0,0,0,13.47-8.23v13.09h41.18V397H750.6Zm-5.4,104.3a48.1,48.1,0,0,1-19,18.74,52.67,52.67,0,0,1-26.46,7.06,49.31,49.31,0,0,1-25.64-7A51.54,51.54,0,0,1,655,574.65a53.5,53.5,0,0,1-.08-53.51,50.76,50.76,0,0,1,45-26.4c14.78,0,26.86,5,36.94,15.26s15,22.91,15,38.46C751.9,558.72,749.71,567.62,745.2,575.67Z" transform="translate(-83.68 -339.55)" style="fill:#666"/><path d="M939.09,542.43c0,24.3-1.57,32.65-2.5,35.42a31.41,31.41,0,0,1-12.38,16.28c-6.15,4.26-13.63,6.33-22.87,6.33s-16.89-2.15-23.35-6.58a30.83,30.83,0,0,1-12.48-17.15c-1.14-4-2.5-13.18-2.5-34.3V458.05H821.54v86.71c0,24.22,2.8,42.17,8.57,54.86a68.52,68.52,0,0,0,27.25,30.83c11.94,7.23,26.76,10.9,44,10.9s32.09-3.68,44-10.93a68.85,68.85,0,0,0,27-30.52c5.79-12.57,8.6-30.13,8.6-53.68V458.05H939.09Z" transform="translate(-83.68 -339.55)" style="fill:#666"/><polygon points="1091.04 118.5 1028.92 118.5 970.14 169.67 970.14 57.48 928.67 57.48 928.67 297.73 970.14 297.73 970.14 239.6 1035.17 297.73 1095.39 297.73 991.81 204.62 1091.04 118.5" style="fill:#666"/><path d="M1306.78,471.37a81.73,81.73,0,0,0-12.21-7.9,85.6,85.6,0,0,0-40.15-9.48c-25.29,0-47.23,9.22-65.2,27.4s-27,40.31-27,65.84c0,26,9,48.4,26.76,66.59s39.66,27.53,64.89,27.53a88.58,88.58,0,0,0,39.47-8.93,89.88,89.88,0,0,0,13.46-8.23v13.09H1348V458.05h-41.18Zm-5.4,104.3a48,48,0,0,1-19,18.74,52.67,52.67,0,0,1-26.46,7.06,49.27,49.27,0,0,1-25.63-7,51.5,51.5,0,0,1-19.15-19.79,53.5,53.5,0,0,1-.08-53.51,50.76,50.76,0,0,1,45-26.4c14.79,0,26.88,5,37,15.26s15,22.91,15,38.46C1308.09,558.73,1305.89,567.62,1301.38,575.67Z" transform="translate(-83.68 -339.55)" style="fill:#666"/><polygon points="1411.58 118.5 1365.62 224.56 1318.29 118.5 1273.67 118.5 1343.27 275.23 1308.25 355.56 1352.78 355.56 1456.32 118.5 1411.58 118.5" style="fill:#666"/><path d="M336.88,611a130,130,0,0,1-1.34,18.93,76.93,76.93,0,0,1-65.73,68h0a75.49,75.49,0,0,1-9.11.55,74.42,74.42,0,0,1-46.14-16,75.43,75.43,0,0,1-9.91-9.39c.17.18.32.39.48.57.3,4.57.51,9.16.51,13.78a166.64,166.64,0,0,1-6.41,45.75l.08.06a131.62,131.62,0,0,0,73.89,22.59,164.81,164.81,0,0,0,117.3-48.59,168.52,168.52,0,0,0,16.78-19.59A152,152,0,0,1,336.88,611Z" transform="translate(-83.68 -339.55)" style="fill:#46b54d"/><path d="M273.63,706.24c37.55,0,69.7-25.26,83-61.08A151,151,0,0,1,336.88,611c-.05,4.3-.2,8.53-.57,12.64l-.06.64c-.07.72-.15,1.45-.23,2.17l-.09.75c-.12.91-.24,1.83-.39,2.73a76.76,76.76,0,0,1-25.35,49.26q-2.34,2.08-4.85,4a77.75,77.75,0,0,1-7.91,5.22,76.47,76.47,0,0,1-8.61,4.25c-2,.83-4,1.59-6.08,2.26a79.26,79.26,0,0,1-12.93,3h0a75.18,75.18,0,0,1-21.48-.48c-2-.34-4-.77-6-1.28s-4-1.1-5.91-1.77-3.86-1.43-5.75-2.27c-1-.42-1.88-.85-2.81-1.31q-2.79-1.38-5.47-3a74.82,74.82,0,0,1-7.78-5.37c-.89-.7-1.76-1.42-2.61-2.15-.69-.6-1.36-1.22-2-1.84l-.45-.41c-1.61-1.53-3.15-3.13-4.61-4.77h0C222.07,693.48,247,706.24,273.63,706.24Z" transform="translate(-83.68 -339.55)" style="mix-blend-mode:multiply;fill:url(#a546e653-c519-4077-b5fd-7d9a93929ad5)"/><path d="M334.09,579.73c-.1-.38-.2-.76-.31-1.14C333.89,579,334,579.35,334.09,579.73Z" transform="translate(-83.68 -339.55)" style="fill:#2da6d6"/><path d="M300,529.18l-.83-.61Z" transform="translate(-83.68 -339.55)" style="fill:#2da6d6"/><path d="M328.91,565.12c-.17-.37-.33-.74-.51-1.1C328.58,564.38,328.74,564.75,328.91,565.12Z" transform="translate(-83.68 -339.55)" style="fill:#2da6d6"/><path d="M298.29,528l-.84-.59Z" transform="translate(-83.68 -339.55)" style="fill:#2da6d6"/><path d="M333.54,577.7c-.11-.39-.23-.77-.34-1.16C333.31,576.93,333.43,577.31,333.54,577.7Z" transform="translate(-83.68 -339.55)" style="fill:#2da6d6"/><path d="M301.6,530.44l-.81-.63Z" transform="translate(-83.68 -339.55)" style="fill:#2da6d6"/><path d="M320.65,550.62c-.21-.31-.42-.61-.64-.91C320.23,550,320.44,550.31,320.65,550.62Z" transform="translate(-83.68 -339.55)" style="fill:#2da6d6"/><path d="M303.21,531.74l-.8-.65Z" transform="translate(-83.68 -339.55)" style="fill:#2da6d6"/><path d="M335.05,583.86c-.08-.38-.16-.76-.25-1.14C334.89,583.1,335,583.48,335.05,583.86Z" transform="translate(-83.68 -339.55)" style="fill:#2da6d6"/><path d="M291.35,523.43c-.27-.17-.55-.32-.83-.48C290.8,523.11,291.08,523.26,291.35,523.43Z" transform="translate(-83.68 -339.55)" style="fill:#2da6d6"/><path d="M293.13,524.5l-.86-.52Z" transform="translate(-83.68 -339.55)" style="fill:#2da6d6"/><path d="M321.82,552.33l-.62-.91Z" transform="translate(-83.68 -339.55)" style="fill:#2da6d6"/><path d="M334.59,581.79c-.08-.38-.18-.76-.27-1.14C334.41,581,334.51,581.41,334.59,581.79Z" transform="translate(-83.68 -339.55)" style="fill:#2da6d6"/><path d="M296.6,526.77l-.86-.58Z" transform="translate(-83.68 -339.55)" style="fill:#2da6d6"/><path d="M294.87,525.62l-.85-.55Z" transform="translate(-83.68 -339.55)" style="fill:#2da6d6"/><path d="M309.37,537.28c-.25-.25-.5-.5-.76-.74C308.87,536.78,309.12,537,309.37,537.28Z" transform="translate(-83.68 -339.55)" style="fill:#2da6d6"/><path d="M318.21,547.27l-.71-.91Z" transform="translate(-83.68 -339.55)" style="fill:#2da6d6"/><path d="M313.83,542l-.89-1Z" transform="translate(-83.68 -339.55)" style="fill:#2da6d6"/><path d="M312.31,540.29l-.78-.84Z" transform="translate(-83.68 -339.55)" style="fill:#2da6d6"/><path d="M331.6,571.71c-.23-.65-.48-1.31-.73-2C331.12,570.4,331.37,571.06,331.6,571.71Z" transform="translate(-83.68 -339.55)" style="fill:#2da6d6"/><path d="M315.63,544c-.43-.51-.87-1-1.32-1.54C314.76,543,315.2,543.53,315.63,544Z" transform="translate(-83.68 -339.55)" style="fill:#2da6d6"/><path d="M316.94,545.65c-.26-.33-.52-.65-.79-1C316.42,545,316.68,545.32,316.94,545.65Z" transform="translate(-83.68 -339.55)" style="fill:#2da6d6"/><path d="M330.76,569.47c-.22-.55-.44-1.1-.67-1.65C330.32,568.37,330.54,568.92,330.76,569.47Z" transform="translate(-83.68 -339.55)" style="fill:#2da6d6"/><path d="M307.87,535.84l-.76-.72Z" transform="translate(-83.68 -339.55)" style="fill:#2da6d6"/><path d="M329.79,567.13c-.17-.41-.34-.82-.52-1.22C329.45,566.31,329.62,566.72,329.79,567.13Z" transform="translate(-83.68 -339.55)" style="fill:#2da6d6"/><path d="M332.94,575.68l-.39-1.2Z" transform="translate(-83.68 -339.55)" style="fill:#2da6d6"/><path d="M319.45,548.93l-.67-.9Z" transform="translate(-83.68 -339.55)" style="fill:#2da6d6"/><path d="M306.35,534.44l-.78-.7Z" transform="translate(-83.68 -339.55)" style="fill:#2da6d6"/><path d="M304.79,533.07l-.78-.67Z" transform="translate(-83.68 -339.55)" style="fill:#2da6d6"/><path d="M288.68,521.91l-.88-.48Z" transform="translate(-83.68 -339.55)" style="fill:#2da6d6"/><path d="M332.29,573.69c-.15-.45-.3-.89-.46-1.33C332,572.8,332.14,573.24,332.29,573.69Z" transform="translate(-83.68 -339.55)" style="fill:#2da6d6"/><path d="M328,563.19l-.51-1Z" transform="translate(-83.68 -339.55)" style="fill:#2da6d6"/><path d="M267.36,513.5c-.32-.09-.65-.16-1-.24C266.71,513.34,267,513.41,267.36,513.5Z" transform="translate(-83.68 -339.55)" style="fill:#2da6d6"/><path d="M325.09,557.63l-.56-1Z" transform="translate(-83.68 -339.55)" style="fill:#2da6d6"/><path d="M265.31,513l-1-.22Z" transform="translate(-83.68 -339.55)" style="fill:#2da6d6"/><path d="M336.76,596.72c0-.44-.05-.87-.08-1.31C336.71,595.85,336.74,596.28,336.76,596.72Z" transform="translate(-83.68 -339.55)" style="fill:#2da6d6"/><path d="M336.6,594.5c0-.41-.07-.82-.11-1.24C336.53,593.68,336.57,594.09,336.6,594.5Z" transform="translate(-83.68 -339.55)" style="fill:#2da6d6"/><path d="M336.87,599c0-.49,0-1-.06-1.46C336.84,598.06,336.85,598.54,336.87,599Z" transform="translate(-83.68 -339.55)" style="fill:#2da6d6"/><path d="M269.39,514l-1-.26Z" transform="translate(-83.68 -339.55)" style="fill:#2da6d6"/><path d="M271.41,514.63l-1-.28Z" transform="translate(-83.68 -339.55)" style="fill:#2da6d6"/><path d="M336.9,608.3c0-.4,0-.81,0-1.21C336.91,607.5,336.91,607.9,336.9,608.3Z" transform="translate(-83.68 -339.55)" style="fill:#2da6d6"/><path d="M326.1,559.45l-.54-1Z" transform="translate(-83.68 -339.55)" style="fill:#2da6d6"/><path d="M263.24,512.55l-.95-.19Z" transform="translate(-83.68 -339.55)" style="fill:#2da6d6"/><path d="M327.07,561.31c-.17-.34-.34-.68-.52-1C326.73,560.63,326.9,561,327.07,561.31Z" transform="translate(-83.68 -339.55)" style="fill:#2da6d6"/><path d="M310.09,538l.76.78Z" transform="translate(-83.68 -339.55)" style="fill:#2da6d6"/><path d="M336.92,601.93c0-.73,0-1.46,0-2.18C336.91,600.47,336.92,601.2,336.92,601.93Z" transform="translate(-83.68 -339.55)" style="fill:#2da6d6"/><path d="M336.39,592.33c0-.4-.08-.8-.13-1.2C336.31,591.53,336.35,591.93,336.39,592.33Z" transform="translate(-83.68 -339.55)" style="fill:#2da6d6"/><path d="M283.11,519.1l-.91-.41Z" transform="translate(-83.68 -339.55)" style="fill:#2da6d6"/><path d="M281.21,518.25l-.92-.4Z" transform="translate(-83.68 -339.55)" style="fill:#2da6d6"/><path d="M336.13,590.18c-.05-.39-.1-.78-.16-1.18C336,589.4,336.08,589.79,336.13,590.18Z" transform="translate(-83.68 -339.55)" style="fill:#2da6d6"/><path d="M335.82,588.05c-.06-.38-.12-.77-.19-1.15C335.7,587.28,335.76,587.67,335.82,588.05Z" transform="translate(-83.68 -339.55)" style="fill:#2da6d6"/><path d="M286.84,520.93l-.89-.46Z" transform="translate(-83.68 -339.55)" style="fill:#2da6d6"/><path d="M322.94,554.07c-.19-.31-.39-.62-.59-.92C322.55,553.45,322.75,553.76,322.94,554.07Z" transform="translate(-83.68 -339.55)" style="fill:#2da6d6"/><path d="M285,520l-.89-.43Z" transform="translate(-83.68 -339.55)" style="fill:#2da6d6"/><path d="M277.35,516.67l-.94-.35Z" transform="translate(-83.68 -339.55)" style="fill:#2da6d6"/><path d="M273.41,515.27l-1-.31Z" transform="translate(-83.68 -339.55)" style="fill:#2da6d6"/><path d="M335.46,586c-.07-.39-.14-.77-.22-1.15C335.32,585.18,335.39,585.56,335.46,586Z" transform="translate(-83.68 -339.55)" style="fill:#2da6d6"/><path d="M275.39,516l-.95-.33Z" transform="translate(-83.68 -339.55)" style="fill:#2da6d6"/><path d="M324,555.84l-.57-.94Z" transform="translate(-83.68 -339.55)" style="fill:#2da6d6"/><path d="M279.29,517.44l-.93-.38Z" transform="translate(-83.68 -339.55)" style="fill:#2da6d6"/><path d="M329.27,565.91l-.36-.79Z" transform="translate(-83.68 -339.55)" style="mix-blend-mode:multiply;fill:url(#92c53bb7-872e-47d2-968d-8be69d606e65)"/><path d="M328.4,564l-.39-.83Z" transform="translate(-83.68 -339.55)" style="mix-blend-mode:multiply;fill:url(#d89276b7-9188-4809-9091-eb6a491c2000)"/><path d="M327.5,562.15c-.14-.29-.29-.56-.43-.84C327.21,561.59,327.36,561.86,327.5,562.15Z" transform="translate(-83.68 -339.55)" style="mix-blend-mode:multiply;fill:url(#1dcb9019-4c2b-4ff5-8ae9-7501a541535d)"/><path d="M330.09,567.82l-.3-.69Z" transform="translate(-83.68 -339.55)" style="mix-blend-mode:multiply;fill:url(#7abacd30-6757-48c0-8f09-b03ee2ed52cd)"/><path d="M334.8,582.72q-.09-.47-.21-.93Q334.71,582.26,334.8,582.72Z" transform="translate(-83.68 -339.55)" style="mix-blend-mode:multiply;fill:url(#fc11e51b-816f-4926-9633-ce189020a4b2)"/><path d="M336.68,595.41c0-.3-.05-.61-.08-.91C336.63,594.8,336.66,595.11,336.68,595.41Z" transform="translate(-83.68 -339.55)" style="mix-blend-mode:multiply;fill:url(#fc339a19-a24e-4a9b-822e-7384a505fef6)"/><path d="M336.26,591.13c0-.32-.09-.63-.13-1C336.17,590.5,336.22,590.81,336.26,591.13Z" transform="translate(-83.68 -339.55)" style="mix-blend-mode:multiply;fill:url(#1eb80492-e242-4bfc-95f8-fb9e432f7f16)"/><path d="M336,589l-.15-1Z" transform="translate(-83.68 -339.55)" style="mix-blend-mode:multiply;fill:url(#d08e5f7d-0c4e-4f87-9614-9da266049614)"/><path d="M336.89,599.75c0-.24,0-.48,0-.72C336.87,599.27,336.89,599.51,336.89,599.75Z" transform="translate(-83.68 -339.55)" style="mix-blend-mode:multiply;fill:url(#d84fe43e-2116-4a4f-872c-a862df2e2b4e)"/><path d="M336.91,607.09c0-1.71,0-3.43,0-5.16C336.92,603.66,336.92,605.38,336.91,607.09Z" transform="translate(-83.68 -339.55)" style="mix-blend-mode:multiply;fill:url(#13599387-9497-45eb-a9c4-ecf6d7082d6c)"/><path d="M330.87,569.76c0-.1-.08-.19-.11-.29C330.79,569.57,330.83,569.66,330.87,569.76Z" transform="translate(-83.68 -339.55)" style="mix-blend-mode:multiply;fill:url(#7d38fbf8-4815-463d-a1bf-a628fe8cc115)"/><path d="M335.63,586.9c-.05-.32-.11-.64-.17-.95C335.52,586.26,335.58,586.58,335.63,586.9Z" transform="translate(-83.68 -339.55)" style="mix-blend-mode:multiply;fill:url(#24eaaeda-c10d-4b34-a16b-9c0541e352d4)"/><path d="M336.81,597.57c0-.28,0-.57-.05-.85C336.78,597,336.8,597.29,336.81,597.57Z" transform="translate(-83.68 -339.55)" style="mix-blend-mode:multiply;fill:url(#b4eefc7a-eb45-41dc-985a-846b3b4b6cfb)"/><path d="M332.55,574.48c-.08-.26-.17-.53-.26-.79C332.38,574,332.47,574.22,332.55,574.48Z" transform="translate(-83.68 -339.55)" style="mix-blend-mode:multiply;fill:url(#af7573b2-ca13-439d-be61-358fd97902b9)"/><path d="M331.83,572.36c-.08-.22-.15-.44-.23-.65C331.68,571.92,331.75,572.14,331.83,572.36Z" transform="translate(-83.68 -339.55)" style="mix-blend-mode:multiply;fill:url(#640f992a-4311-446a-a27f-804e9fd5c1da)"/><path d="M333.2,576.54c-.09-.28-.17-.57-.26-.86C333,576,333.11,576.26,333.2,576.54Z" transform="translate(-83.68 -339.55)" style="mix-blend-mode:multiply;fill:url(#51b05519-546e-42e7-9c6d-5be6fd363ec0)"/><path d="M334.32,580.65c-.08-.31-.15-.61-.23-.92C334.17,580,334.24,580.34,334.32,580.65Z" transform="translate(-83.68 -339.55)" style="mix-blend-mode:multiply;fill:url(#f3ba9ea2-7a5e-4d4c-8c66-ba904e3ecb96)"/><path d="M333.78,578.59l-.24-.89Z" transform="translate(-83.68 -339.55)" style="mix-blend-mode:multiply;fill:url(#932e4bb8-d9e2-459f-b013-96e59bb45f44)"/><path d="M326.55,560.3l-.45-.85Z" transform="translate(-83.68 -339.55)" style="mix-blend-mode:multiply;fill:url(#dfc64b04-aab1-4bc4-97f7-ec5463ead8de)"/><path d="M335.24,584.8c-.06-.32-.12-.63-.19-.94C335.12,584.17,335.18,584.48,335.24,584.8Z" transform="translate(-83.68 -339.55)" style="mix-blend-mode:multiply;fill:url(#2f46eb79-7e16-4bd6-83cb-75053986926a)"/><path d="M336.49,593.26c0-.31-.06-.62-.1-.93C336.43,592.64,336.46,593,336.49,593.26Z" transform="translate(-83.68 -339.55)" style="mix-blend-mode:multiply;fill:url(#a4fd1750-2e52-44c2-a567-d58b758f5ec4)"/><path d="M282.2,518.69l-1-.44Z" transform="translate(-83.68 -339.55)" style="mix-blend-mode:multiply;fill:url(#6377cb5d-cfff-4e53-ac82-3a60ab7ae51f)"/><path d="M284.09,519.56l-1-.46Z" transform="translate(-83.68 -339.55)" style="mix-blend-mode:multiply;fill:url(#1802278a-5c60-494f-8047-73cc10faf722)"/><path d="M280.29,517.85l-1-.41Z" transform="translate(-83.68 -339.55)" style="mix-blend-mode:multiply;fill:url(#0eed42e8-94bb-4d84-8069-0d9d3ba19868)"/><path d="M286,520.47l-1-.48Z" transform="translate(-83.68 -339.55)" style="mix-blend-mode:multiply;fill:url(#6ea5ef63-c9d6-4f3d-b257-1964dcf800f0)"/><path d="M278.36,517.06l-1-.39Z" transform="translate(-83.68 -339.55)" style="mix-blend-mode:multiply;fill:url(#afa1a28c-4ff9-4432-9126-265d95bde902)"/><path d="M292.27,524l-.92-.55Z" transform="translate(-83.68 -339.55)" style="mix-blend-mode:multiply;fill:url(#af8b481c-be06-4706-bb63-05169a845900)"/><path d="M294,525.07l-.89-.57Z" transform="translate(-83.68 -339.55)" style="mix-blend-mode:multiply;fill:url(#261b0428-8bc3-474b-a2b7-ab41b4766b21)"/><path d="M295.74,526.19l-.87-.57Z" transform="translate(-83.68 -339.55)" style="mix-blend-mode:multiply;fill:url(#3d62089d-28fc-4839-bd57-c6c9841e3db0)"/><path d="M290.52,523c-.61-.35-1.22-.7-1.84-1C289.3,522.25,289.91,522.6,290.52,523Z" transform="translate(-83.68 -339.55)" style="mix-blend-mode:multiply;fill:url(#a97bb7c3-732f-4765-b92d-3b3ca753d9b5)"/><path d="M287.8,521.43l-1-.5Z" transform="translate(-83.68 -339.55)" style="mix-blend-mode:multiply;fill:url(#be148fda-c058-462c-a9fc-5c2bcf84ddd1)"/><path d="M276.41,516.32l-1-.37Z" transform="translate(-83.68 -339.55)" style="mix-blend-mode:multiply;fill:url(#2ca5beae-140c-4567-9ab5-b1f87ec7a1eb)"/><path d="M264.34,512.78l-1.1-.23Z" transform="translate(-83.68 -339.55)" style="mix-blend-mode:multiply;fill:url(#0741105f-a923-4c08-bb91-1fa8f8dcef7f)"/><path d="M309.37,537.28l.72.7Z" transform="translate(-83.68 -339.55)" style="mix-blend-mode:multiply;fill:url(#4ce617aa-34e1-412a-b195-34a739a35aa9)"/><path d="M259.14,511.8c1.05.17,2.1.36,3.15.56-1.05-.2-2.1-.39-3.15-.56Z" transform="translate(-83.68 -339.55)" style="mix-blend-mode:multiply;fill:url(#511a2065-5fcb-4c50-9706-ef8706210807)"/><path d="M268.43,513.78l-1.07-.28Z" transform="translate(-83.68 -339.55)" style="mix-blend-mode:multiply;fill:url(#096a6b1f-06f3-49db-8d19-3047c0909e7d)"/><path d="M270.45,514.35l-1.06-.31Z" transform="translate(-83.68 -339.55)" style="mix-blend-mode:multiply;fill:url(#11b30415-570d-4c31-afda-0a88c9a113bf)"/><path d="M272.46,515l-1-.33Z" transform="translate(-83.68 -339.55)" style="mix-blend-mode:multiply;fill:url(#dfb72d85-f225-4814-b87d-bfbfca68dfd8)"/><path d="M266.39,513.26l-1.08-.26Z" transform="translate(-83.68 -339.55)" style="mix-blend-mode:multiply;fill:url(#edfde20c-7ce7-4868-835d-c6bc78c498ef)"/><path d="M274.44,515.62l-1-.35Z" transform="translate(-83.68 -339.55)" style="mix-blend-mode:multiply;fill:url(#5aad65d8-7e4a-4599-b865-74010d75edec)"/><path d="M300.79,529.81l-.83-.63Z" transform="translate(-83.68 -339.55)" style="mix-blend-mode:multiply;fill:url(#452ed83d-d2e7-4574-86eb-8bd79df95bfd)"/><path d="M320,549.71l-.56-.78Z" transform="translate(-83.68 -339.55)" style="mix-blend-mode:multiply;fill:url(#03917174-e43e-4bf6-8427-b32bf686a4c0)"/><path d="M318.78,548c-.19-.25-.37-.51-.57-.76C318.41,547.52,318.59,547.78,318.78,548Z" transform="translate(-83.68 -339.55)" style="mix-blend-mode:multiply;fill:url(#b040a118-7b2b-4655-9051-6f39098a83b5)"/><path d="M314.31,542.5l-.48-.54Z" transform="translate(-83.68 -339.55)" style="mix-blend-mode:multiply;fill:url(#29847853-53d0-454b-9bb6-94b584b196cc)"/><path d="M316.15,544.68c-.17-.21-.34-.43-.52-.64C315.81,544.25,316,544.47,316.15,544.68Z" transform="translate(-83.68 -339.55)" style="mix-blend-mode:multiply;fill:url(#5c4f41e8-0bf5-41ed-8dd0-dd8aa5c30401)"/><path d="M317.5,546.36c-.18-.24-.37-.48-.56-.71C317.13,545.88,317.32,546.12,317.5,546.36Z" transform="translate(-83.68 -339.55)" style="mix-blend-mode:multiply;fill:url(#03e07ce2-dc4a-4d1b-96c9-a5348fb50407)"/><path d="M323.46,554.9c-.17-.28-.34-.56-.52-.83C323.12,554.34,323.29,554.62,323.46,554.9Z" transform="translate(-83.68 -339.55)" style="mix-blend-mode:multiply;fill:url(#b485b877-9257-4612-b362-9c7576ba4863)"/><path d="M324.53,556.67l-.5-.83Z" transform="translate(-83.68 -339.55)" style="mix-blend-mode:multiply;fill:url(#96adc2ce-a18f-4df2-bb23-d795bec593ab)"/><path d="M321.2,551.42c-.18-.27-.36-.54-.55-.8C320.84,550.88,321,551.15,321.2,551.42Z" transform="translate(-83.68 -339.55)" style="mix-blend-mode:multiply;fill:url(#f6789f7a-9aaf-470f-a81d-346663ecee05)"/><path d="M322.35,553.15l-.53-.82Z" transform="translate(-83.68 -339.55)" style="mix-blend-mode:multiply;fill:url(#8f60d6cb-1a9c-4239-a252-8f465b398c35)"/><path d="M311.53,539.45l-.68-.69Z" transform="translate(-83.68 -339.55)" style="mix-blend-mode:multiply;fill:url(#e12e3f67-9791-45c6-b1c9-a16c797db65a)"/><path d="M325.56,558.47c-.16-.28-.32-.56-.47-.84C325.24,557.91,325.4,558.19,325.56,558.47Z" transform="translate(-83.68 -339.55)" style="mix-blend-mode:multiply;fill:url(#974e5369-c398-4ef9-8ebc-8b9f46367073)"/><path d="M312.94,541l-.63-.67Z" transform="translate(-83.68 -339.55)" style="mix-blend-mode:multiply;fill:url(#29606808-ae5a-4520-bc1f-679890394527)"/><path d="M304,532.4l-.8-.66Z" transform="translate(-83.68 -339.55)" style="mix-blend-mode:multiply;fill:url(#8be6cf20-c216-4576-9ce9-8241028de86f)"/><path d="M299.13,528.57l-.84-.62Z" transform="translate(-83.68 -339.55)" style="mix-blend-mode:multiply;fill:url(#f821ad50-799e-47a7-803e-2ca98f68c92c)"/><path d="M302.41,531.09l-.81-.65Z" transform="translate(-83.68 -339.55)" style="mix-blend-mode:multiply;fill:url(#1576a26f-83d1-4f06-bc11-1de99a90f7e0)"/><path d="M297.45,527.36l-.85-.59Z" transform="translate(-83.68 -339.55)" style="mix-blend-mode:multiply;fill:url(#2e8dac84-709a-43ef-b00e-ea15b80312b1)"/><path d="M308.61,536.54c-.24-.24-.49-.47-.74-.7C308.12,536.07,308.37,536.3,308.61,536.54Z" transform="translate(-83.68 -339.55)" style="mix-blend-mode:multiply;fill:url(#16892bf7-fb40-42e5-b41f-ccfd268a657e)"/><path d="M305.57,533.74l-.78-.67Z" transform="translate(-83.68 -339.55)" style="mix-blend-mode:multiply;fill:url(#96a947e3-b194-4b58-aaf5-0a96de965211)"/><path d="M307.11,535.12l-.76-.68Z" transform="translate(-83.68 -339.55)" style="mix-blend-mode:multiply;fill:url(#ca7766b3-e13f-49f5-942b-e60d93d83ff4)"/><path d="M378.21,443a209,209,0,0,0-17.41-15.57l-1-.74a152.15,152.15,0,0,1-109.53,84.17q4.49.25,8.88.95c1.05.17,2.1.36,3.15.56l.95.19,1.1.23,1,.22,1.08.26c.32.08.65.15,1,.24l1.07.28,1,.26,1.06.31,1,.28,1,.33,1,.31,1,.35.95.33,1,.37.94.35,1,.39.93.38,1,.41.92.4,1,.44.91.41,1,.46.89.43,1,.48.89.46,1,.5.88.48c.62.34,1.23.69,1.84,1,.28.16.56.31.83.48l.92.55.86.52.89.57.85.55.87.57.86.58.85.59.84.59.84.62.83.61.83.63.81.63.81.65.8.65.8.66.78.67.78.67.78.7.76.68.76.72c.25.23.5.46.74.7s.51.49.76.74l.72.7.76.78.68.69.78.84.63.67.89,1,.48.54c.45.51.89,1,1.32,1.54.18.21.35.43.52.64s.53.64.79,1,.38.47.56.71l.71.91c.2.25.38.51.57.76l.67.9.56.78c.22.3.43.6.64.91s.37.53.55.8l.62.91.53.82c.2.3.4.61.59.92s.35.55.52.83l.57.94.5.83.56,1c.15.28.31.56.47.84l.54,1,.45.85c.18.33.35.67.52,1s.29.55.43.84l.51,1,.39.83c.18.36.34.73.51,1.1l.36.79c.18.4.35.81.52,1.22l.3.69c.23.55.45,1.1.67,1.65,0,.1.07.19.11.29.25.64.5,1.3.73,2,.08.21.15.43.23.65.16.44.31.88.46,1.33.09.26.18.53.26.79l.39,1.2c.09.29.17.58.26.86s.23.77.34,1.16l.24.89c.11.38.21.76.31,1.14s.15.61.23.92.19.76.27,1.14.15.62.21.93.17.76.25,1.14.13.62.19.94.15.76.22,1.15.12.63.17.95.13.77.19,1.15l.15,1c.06.4.11.79.16,1.18s.09.63.13,1,.09.8.13,1.2.07.62.1.93.08.83.11,1.24.06.61.08.91.06.87.08,1.31c0,.28,0,.57.05.85,0,.49,0,1,.06,1.46,0,.24,0,.48,0,.72,0,.72,0,1.45,0,2.18,0,1.73,0,3.45,0,5.16,0,.4,0,.81,0,1.21,0,3.24-.07,6.45-.21,9.6a116.28,116.28,0,0,0,18.89,30c14,16.37,32.24,29.62,51.66,39.72a164.68,164.68,0,0,0,31.81-97.71A206.38,206.38,0,0,0,378.21,443Z" transform="translate(-83.68 -339.55)" style="fill:#2da6d6"/><path d="M205.6,687.37c0-4.62-.21-9.21-.51-13.78a74.33,74.33,0,0,1-14.65-24.24c-13.67-37.32,9-79.1,48.42-84A60.35,60.35,0,0,1,306.09,618a48.12,48.12,0,0,1-8.75,34c-2.21,3.08,1.69,6.93,4.79,4.74a67,67,0,0,0,28.45-54.8,84.3,84.3,0,0,0-84.2-84.2A105.76,105.76,0,0,0,140.75,623.36a132.36,132.36,0,0,0,58.53,109.82l-.09,0A166.38,166.38,0,0,0,205.6,687.37Z" transform="translate(-83.68 -339.55)" style="fill:#ffa900"/><path d="M202,379.77h0a1.53,1.53,0,0,1-.44-1.43l6.66-32.65a5.1,5.1,0,0,0-5.8-6.06c-23,3.7-83.39,20.42-118.26,94.61a5,5,0,0,0,2.35,6.66h0c4.33.11,12.88.22,21.89-.21,22.53-1.1,28.37-4.62,29.84-6.09a3.17,3.17,0,0,1,4.77.33,3.33,3.33,0,0,1-.56,4.41c-7.48,6.92-32.28,8-47.43,8-2.19,0-2.54,0-4.29-.06a.51.51,0,0,0-.28.94c16.76,10,50,26.53,77.85,20.51a48.05,48.05,0,0,0,11.34-4c3.79-2.22,7-4.43,7.51-4.79a51.52,51.52,0,0,0,14-16.25,2.77,2.77,0,0,1,4.25-.71,2.81,2.81,0,0,1,.54,3.51,56.51,56.51,0,0,1-16.53,18.66c.75.11,18.69-1.19,38.72,14.44,22.17,17.31,22.06,31.11,22.06,31.11,92.31-12.11,109.53-84.08,109.53-84.08S308.34,376.66,202,379.77Zm-65.2,40.45a14.35,14.35,0,0,1-15.5-11.05,8.92,8.92,0,0,1-.37-1.72,9.31,9.31,0,0,1,0-1.75,14.37,14.37,0,1,1,15.88,14.52Z" transform="translate(-83.68 -339.55)" style="fill:#db1935"/><path d="M189.46,465.22h0Z" transform="translate(-83.68 -339.55)" style="fill:#db1935"/><path d="M289.31,391.42" transform="translate(-83.68 -339.55)" style="fill:none"/><path d="M378.21,443a209,209,0,0,0-17.41-15.57l-1-.74s-23.67-23-72.06-36.84c30.25,12.88,49.09,27.33,49.09,27.33l1,.74a209,209,0,0,1,17.41,15.57c39.24,39.23,67.18,91.41,67.18,146.89a164.68,164.68,0,0,1-31.81,97.71h0a168.52,168.52,0,0,1-16.78,19.59C342.49,729,294.5,746.26,250.18,746.26c-10.4,0-24.48-1.21-34.2-3.49a131.59,131.59,0,0,0,57.18,13,164.81,164.81,0,0,0,117.3-48.59,168.52,168.52,0,0,0,16.78-19.59h0a164.68,164.68,0,0,0,31.81-97.71A206.38,206.38,0,0,0,378.21,443Z" transform="translate(-83.68 -339.55)" style="opacity:0.9;mix-blend-mode:multiply;fill:url(#aab4a589-c657-41c3-9163-5d64ad63c4aa)"/><path d="M205.09,673.59l0,.41,0-.41c-.16-.18-.31-.39-.48-.57l.2.21a100,100,0,0,1-8.49-11.55A73.67,73.67,0,0,0,205.09,673.59Z" transform="translate(-83.68 -339.55)" style="fill:none"/><g style="mix-blend-mode:multiply"><path d="M156.6,623.36a105.78,105.78,0,0,1,97.23-105.3c-2.45-.21-4.94-.33-7.45-.33A105.76,105.76,0,0,0,140.75,623.36a132.36,132.36,0,0,0,58.53,109.82l-.09,0c1-3.39,1.82-6.81,2.58-10.26A132.13,132.13,0,0,1,156.6,623.36Z" transform="translate(-83.68 -339.55)" style="fill:url(#df415da3-c5dd-4b2a-9516-8704ecc62c38)"/></g><g style="mix-blend-mode:multiply"><path d="M84,434.56c-.06.1.09-.22.14-.33C119,360,179.48,343.32,202.43,339.62a5.1,5.1,0,0,1,5.8,6.06l-.78-.15S122.62,361.76,84,434.56Z" transform="translate(-83.68 -339.55)" style="fill:url(#7837e861-278b-4e7c-8bbe-a7f0c90e7312)"/></g><g style="mix-blend-mode:multiply"><path d="M313.65,615.12c0-29.1-27.32-52.69-61-52.69A66.49,66.49,0,0,0,212,575.87a57.85,57.85,0,0,1,26.91-10.49A60.35,60.35,0,0,1,306.09,618a48.1,48.1,0,0,1-6.84,31.08C308.23,639.93,313.65,628.07,313.65,615.12Z" transform="translate(-83.68 -339.55)" style="fill:url(#1a1c8762-58a8-459d-9b4e-d7419e028983)"/></g><path d="M305.34,683.14q2.51-1.89,4.85-4Q307.85,681.24,305.34,683.14Z" transform="translate(-83.68 -339.55)" style="mix-blend-mode:multiply;fill:url(#7b054975-2790-4c8f-adf2-7e743eff1ac6)"/><path d="M288.82,692.61a76.47,76.47,0,0,0,8.61-4.25A76.47,76.47,0,0,1,288.82,692.61Z" transform="translate(-83.68 -339.55)" style="mix-blend-mode:multiply;fill:url(#278aa5d0-01fd-4820-ac9d-771b55785ac8)"/><path d="M335.54,629.9c.15-.9.27-1.82.39-2.73C335.81,628.08,335.69,629,335.54,629.9Z" transform="translate(-83.68 -339.55)" style="mix-blend-mode:multiply;fill:url(#454bc8d1-2941-440a-8e44-b6fc42f083a0)"/><path d="M236.33,694.35q2.92,1,5.91,1.77Q239.26,695.36,236.33,694.35Z" transform="translate(-83.68 -339.55)" style="mix-blend-mode:multiply;fill:url(#7b8eadf5-7f17-4ce5-94de-7daa059b7590)"/><path d="M222.3,687.78q2.69,1.61,5.47,3Q225,689.39,222.3,687.78Z" transform="translate(-83.68 -339.55)" style="mix-blend-mode:multiply;fill:url(#767abf47-2c92-41da-bda1-96ab251682dc)"/><path d="M242.24,696.12c2,.51,4,.94,6,1.28C246.25,697.06,244.24,696.63,242.24,696.12Z" transform="translate(-83.68 -339.55)" style="mix-blend-mode:multiply;fill:url(#4e2f3dd0-eb50-4b35-ac56-3511e3c8218a)"/><path d="M230.58,692.08c1.89.84,3.81,1.59,5.75,2.27C234.39,693.67,232.47,692.92,230.58,692.08Z" transform="translate(-83.68 -339.55)" style="mix-blend-mode:multiply;fill:url(#2d89f31e-27c9-485a-94bd-5db47763f07b)"/><path d="M282.74,694.87c2.07-.67,4.1-1.43,6.08-2.26C286.84,693.44,284.81,694.2,282.74,694.87Z" transform="translate(-83.68 -339.55)" style="mix-blend-mode:multiply;fill:url(#0152de82-7ec1-4878-89c5-2e4570c71431)"/><path d="M209.43,678c-1.61-1.53-3.15-3.13-4.61-4.77C206.28,674.88,207.82,676.48,209.43,678Z" transform="translate(-83.68 -339.55)" style="mix-blend-mode:multiply;fill:url(#81430168-ebf6-4707-b5bc-8ddda1020950)"/><path d="M336,626.42c.08-.72.16-1.45.23-2.17C336.18,625,336.1,625.7,336,626.42Z" transform="translate(-83.68 -339.55)" style="mix-blend-mode:multiply;fill:url(#829bbc2c-b03e-4931-9cba-057440fb6c5b)"/><path d="M209.88,678.42c.67.62,1.34,1.24,2,1.84C211.22,679.66,210.55,679,209.88,678.42Z" transform="translate(-83.68 -339.55)" style="mix-blend-mode:multiply;fill:url(#7a53404a-0f3b-4b76-b1bd-3cb8d8716e70)"/><path d="M282.74,694.87a79.26,79.26,0,0,1-12.93,3h0A79.26,79.26,0,0,0,282.74,694.87Z" transform="translate(-83.68 -339.55)" style="mix-blend-mode:multiply;fill:url(#35206fd0-b7d8-4b93-9a97-07b49daefac4)"/><path d="M211.91,680.26c.85.73,1.72,1.45,2.61,2.15C213.63,681.71,212.76,681,211.91,680.26Z" transform="translate(-83.68 -339.55)" style="fill:#46b54d"/><path d="M209.43,678l.45.41Z" transform="translate(-83.68 -339.55)" style="fill:#46b54d"/><path d="M336.25,624.25l.06-.64Z" transform="translate(-83.68 -339.55)" style="fill:#46b54d"/><path d="M335.93,627.17l.09-.75Z" transform="translate(-83.68 -339.55)" style="fill:#46b54d"/><path d="M273.63,510.53a84,84,0,0,0-14.49,1.27c1.05.17,2.1.36,3.15.56l.95.19,1.1.23,1,.22,1.08.26c.32.08.65.15,1,.24l1.07.28,1,.26,1.06.31,1,.28,1,.33,1,.31,1,.35.95.33,1,.37.94.35,1,.39.93.38,1,.41.92.4,1,.44.91.41,1,.46.89.43,1,.48.89.46,1,.5.88.48c.62.34,1.23.69,1.84,1,.28.16.56.31.83.48l.92.55.86.52.89.57.85.55.87.57.86.58.85.59.84.59.84.62.83.61.83.63.81.63.81.65.8.65.8.66.78.67.78.67.78.7.76.68.76.72c.25.23.5.46.74.7s.51.49.76.74l.72.7.76.78.68.69.78.84.63.67.89,1,.48.54c.45.51.89,1,1.32,1.54.18.21.35.43.52.64s.53.64.79,1,.38.47.56.71l.71.91c.2.25.38.51.57.76l.67.9.56.78c.22.3.43.6.64.91s.37.53.55.8l.62.91.53.82c.2.3.4.61.59.92s.35.55.52.83l.57.94.5.83.56,1c.15.28.31.56.47.84l.54,1,.45.85c.18.33.35.67.52,1s.29.55.43.84l.51,1,.39.83c.18.36.34.73.51,1.1l.36.79c.18.4.35.81.52,1.22l.3.69c.23.55.45,1.1.67,1.65,0,.1.07.19.11.29.25.64.5,1.3.73,2,.08.21.15.43.23.65.16.44.31.88.46,1.33.09.26.18.53.26.79l.39,1.2c.09.29.17.58.26.86s.23.77.34,1.16l.24.89c.11.38.21.76.31,1.14s.15.61.23.92.19.76.27,1.14.15.62.21.93.17.76.25,1.14.13.62.19.94.15.76.22,1.15.12.63.17.95.13.77.19,1.15l.15,1c.06.4.11.79.16,1.18s.09.63.13,1,.09.8.13,1.2.07.62.1.93.08.83.11,1.24.06.61.08.91.06.87.08,1.31c0,.28,0,.57.05.85,0,.49,0,1,.06,1.46,0,.24,0,.48,0,.72,0,.72,0,1.45,0,2.18,0,1.73,0,3.45,0,5.16,0,.4,0,.81,0,1.21,0,3.24-.07,6.45-.21,9.6a116.28,116.28,0,0,0,18.89,30,105.45,105.45,0,0,0,7.59-39.48C363.17,554.34,323.08,510.53,273.63,510.53Z" transform="translate(-83.68 -339.55)" style="mix-blend-mode:multiply;fill:url(#06b99d06-c624-4faa-9f01-034cdaffec5e)"/><path d="M189.42,465.21h0a52.08,52.08,0,0,0,10.59-9.92,63.35,63.35,0,0,0,6-8.75S261,468.2,250.26,510.76c0,0,.11-13.8-22.06-31.11-20.33-15.87-38.56-14.28-38.78-14.44" transform="translate(-83.68 -339.55)" style="mix-blend-mode:multiply;fill:url(#7bfbeb9a-e58d-4bb6-90b2-f59ad875110a)"/></g></g></svg>