<svg xmlns="http://www.w3.org/2000/svg" xmlns:xlink="http://www.w3.org/1999/xlink" viewBox="0 0 1402.2 1035.58"><defs><linearGradient id="192d3501-e3fa-4791-a002-e460fa98a7c1" x1="347.19" y1="277.36" x2="458.31" y2="296.95" gradientUnits="userSpaceOnUse"><stop offset="0.2" stop-color="#fff"/><stop offset="0.26" stop-color="#e9e3ee"/><stop offset="0.59" stop-color="#775293"/><stop offset="0.74" stop-color="#49186f"/></linearGradient><linearGradient id="27e628d0-a5ce-4497-9a32-02078690bfa9" x1="203.35" y1="431.21" x2="297.49" y2="376.86" gradientUnits="userSpaceOnUse"><stop offset="0.2" stop-color="#fff"/><stop offset="0.29" stop-color="#e9e3ee"/><stop offset="0.79" stop-color="#775293"/><stop offset="1" stop-color="#49186f"/></linearGradient><linearGradient id="55c0abcb-9955-4cb0-a70f-df7cf9e9c21a" x1="217.18" y1="641.14" x2="260.49" y2="522.16" xlink:href="#192d3501-e3fa-4791-a002-e460fa98a7c1"/><linearGradient id="1c1ce3a0-c6eb-4b0d-bc48-5b6351405545" x1="1374.51" y1="534.29" x2="1281.49" y2="423.43" xlink:href="#27e628d0-a5ce-4497-9a32-02078690bfa9"/><linearGradient id="59fc7fcf-18b4-4f69-a2f1-3aad5f287d42" x1="1420.6" y1="656.55" x2="1363.78" y2="558.14" xlink:href="#27e628d0-a5ce-4497-9a32-02078690bfa9"/><linearGradient id="fe243e59-f145-467e-9a1f-3536d270bed0" x1="1274.05" y1="856.62" x2="1298.35" y2="718.82" xlink:href="#27e628d0-a5ce-4497-9a32-02078690bfa9"/><linearGradient id="1dc41690-1e6d-4e44-90f0-a8bab5e313e1" x1="760.16" y1="250.33" x2="783.25" y2="210.33" gradientUnits="userSpaceOnUse"><stop offset="0.2" stop-color="#fff"/><stop offset="0.28" stop-color="#f9f7fa"/><stop offset="0.39" stop-color="#e8e2ed"/><stop offset="0.53" stop-color="#cdbfd7"/><stop offset="0.68" stop-color="#a78fb9"/><stop offset="0.85" stop-color="#775293"/><stop offset="1" stop-color="#49186f"/></linearGradient><linearGradient id="e2cb50eb-4d9a-4253-9e10-a1cd4d0c6424" x1="-1041.67" y1="257.39" x2="-1050.63" y2="206.57" gradientTransform="matrix(-1, 0, 0, 1, -134.59, 0)" gradientUnits="userSpaceOnUse"><stop offset="0.2" stop-color="#fff"/><stop offset="0.3" stop-color="#fcfbfc"/><stop offset="0.4" stop-color="#f2eef4"/><stop offset="0.51" stop-color="#e1d9e7"/><stop offset="0.62" stop-color="#c9bbd5"/><stop offset="0.73" stop-color="#ab95bd"/><stop offset="0.85" stop-color="#86669f"/><stop offset="0.96" stop-color="#5b2f7d"/><stop offset="1" stop-color="#49186f"/></linearGradient><linearGradient id="c5caf06f-3f8a-4484-ae4e-97d0919fa0b7" x1="795.93" y1="1000.35" x2="773.76" y2="961.95" xlink:href="#1dc41690-1e6d-4e44-90f0-a8bab5e313e1"/></defs><title>Poster</title><g style="isolation:isolate"><g id="e5148c93-2b7f-41a1-b609-0ae3ad50764d" data-name="Loggin"><path d="M1391.66,972.72c0-16.52-244.2-29.91-545.44-29.91S300.79,956.2,300.79,972.72c0,8.61,66.34,16.37,172.49,21.83-23.14,6-36.2,12.73-36.2,19.9,0,24.18,148.54,43.78,331.76,43.78s331.76-19.6,331.76-43.78c0-5.17-6.81-10.12-19.27-14.73C1264.87,994.91,1391.66,984.63,1391.66,972.72Z" transform="translate(-110.8 -22.65)" style="fill:#2da6d6;opacity:0.15"/><path d="M820,102.82s1.32,8.5-2.43,21.6l21.15,24.27,13.41-25.23a142.31,142.31,0,0,1-7.3-36.61l-17.38-9.7Z" transform="translate(-110.8 -22.65)" style="fill:#f49e7f"/><path d="M791.27,55.87s.51,51.54,29.37,52.93c6.37.3,24.68,1.78,34-32.29L864.9,62,847.15,30.29Z" transform="translate(-110.8 -22.65)" style="fill:#f8af91"/><path d="M769.41,56.11C776.78,76.26,844.78,45,844.78,45s3.84,15.88,8.63,17.15c0,0,5.11.64,5.75,4.15s-4.8,4.16-4.8,4.16l-1.59,11.42s15.33-1.2,16-18.77.08-43.75-17.25-38.35C851.49,24.79,752.71,10.44,769.41,56.11Z" transform="translate(-110.8 -22.65)" style="fill:#56250f"/><path d="M936.27,193.38c-24.76-71.88-84.51-70.24-84.51-70.24-17.58,20.37-34.22,1.28-34.22,1.28s-63.8,10.22-79.33,66.65l24.68,131.87,148-6.64Z" transform="translate(-110.8 -22.65)" style="fill:#9286bb"/><rect x="698.35" y="275.05" width="55.76" height="30.77" style="fill:#1345a8"/><path d="M549,431.1s25.23-176.5-98.27-272.83c0,0-100.92,45.63-108.89,154.64l93,117.25Z" transform="translate(-110.8 -22.65)" style="fill:#9286bb"/><path d="M434.82,430.16l-93-117.25c8-109,108.89-154.64,108.89-154.64S410.92,297,434.82,430.16Z" transform="translate(-110.8 -22.65)" style="opacity:0.4;mix-blend-mode:multiply;fill:url(#192d3501-e3fa-4791-a002-e460fa98a7c1)"/><path d="M481.37,446.91S368.42,228,206.41,219.11c0,0-91.63,121.69,37.18,268.73l144.75,46.9Z" transform="translate(-110.8 -22.65)" style="fill:#ffa900"/><path d="M206.41,219.11S114.78,340.8,243.59,487.84l144.75,46.9S254.22,374.24,206.41,219.11Z" transform="translate(-110.8 -22.65)" style="opacity:0.4;mix-blend-mode:multiply;fill:url(#27e628d0-a5ce-4497-9a32-02078690bfa9)"/><path d="M295.38,442.33S167.9,405.57,110.8,467.68c0,0,14.88,134.36,166.13,195.21l130-77.33Z" transform="translate(-110.8 -22.65)" style="fill:#9286bb"/><path d="M406.93,585.56l-130,77.33C125.68,602,110.8,467.68,110.8,467.68S247.58,570.65,406.93,585.56Z" transform="translate(-110.8 -22.65)" style="opacity:0.4;mix-blend-mode:multiply;fill:url(#55c0abcb-9955-4cb0-a70f-df7cf9e9c21a)"/><path d="M1197.06,405s91.52-97.45,192.84-66.53c0,0,41.38,112.85-34.84,212.13l-179-38.71Z" transform="translate(-110.8 -22.65)" style="fill:#9286bb"/><path d="M1176,511.91l179,38.71c76.22-99.28,34.84-212.13,34.84-212.13S1340.84,479.65,1176,511.91Z" transform="translate(-110.8 -22.65)" style="opacity:0.5;mix-blend-mode:multiply;fill:url(#1c1ce3a0-c6eb-4b0d-bc48-5b6351405545)"/><path d="M1219.45,532s156-112.29,289.87-57.85c0,0,40.19,130.44-144.93,212.1l-144.94-42Z" transform="translate(-110.8 -22.65)" style="fill:#ffa900"/><path d="M1219.45,644.24l144.94,42c185.12-81.66,144.93-212.1,144.93-212.1S1443.7,556.55,1219.45,644.24Z" transform="translate(-110.8 -22.65)" style="opacity:0.5;mix-blend-mode:multiply;fill:url(#59fc7fcf-18b4-4f69-a2f1-3aad5f287d42)"/><path d="M1176,619.06s215.32,33.29,247.08,121.76c0,0-53.55,97.41-238.54,100l-3-34.24Z" transform="translate(-110.8 -22.65)" style="fill:#9286bb"/><path d="M1181.53,806.6l3,34.24c185-3.79,238.54-100,238.54-100s-187,23.8-259.66,13.44Z" transform="translate(-110.8 -22.65)" style="opacity:0.5;mix-blend-mode:multiply;fill:url(#fe243e59-f145-467e-9a1f-3536d270bed0)"/><path d="M298.95,650.6h796.77a35.78,35.78,0,0,1,35.78,35.78v93.53a35.78,35.78,0,0,1-35.78,35.78H298.95a0,0,0,0,1,0,0V650.6a0,0,0,0,1,0,0Z" style="fill:#fff"/><rect x="298.95" y="673.51" width="292.23" height="131.4" style="opacity:0.1;mix-blend-mode:multiply"/><path d="M282.83,651.94H606.16a0,0,0,0,1,0,0v21.57a0,0,0,0,1,0,0H282.83a1.37,1.37,0,0,1-1.37-1.37V653.31A1.37,1.37,0,0,1,282.83,651.94Z" style="fill:#e0b146"/><path d="M282.83,794.12H606.16a0,0,0,0,1,0,0v21.57a0,0,0,0,1,0,0H282.83a1.37,1.37,0,0,1-1.37-1.37V795.49A1.37,1.37,0,0,1,282.83,794.12Z" style="fill:#e0b146"/><g style="opacity:0.1;mix-blend-mode:multiply"><path d="M352,651.94H675.37a0,0,0,0,1,0,0v21.57a0,0,0,0,1,0,0H352a1.37,1.37,0,0,1-1.37-1.37V653.31A1.37,1.37,0,0,1,352,651.94Z" style="fill:#edb73e"/><path d="M352,794.12H675.37a0,0,0,0,1,0,0v21.57a0,0,0,0,1,0,0H352a1.37,1.37,0,0,1-1.37-1.37V795.49A1.37,1.37,0,0,1,352,794.12Z" style="fill:#edb73e"/></g><path d="M1244,756.47a81.88,81.88,0,0,0-81.88-81.88H697.06a10.79,10.79,0,0,0-10.78,10.79h0a10.78,10.78,0,0,0,10.78,10.78h458.73a60.31,60.31,0,0,1,60.3,60.31h0a60.3,60.3,0,0,1-60.3,60.3H697.06a10.79,10.79,0,0,0-10.78,10.79h0a10.79,10.79,0,0,0,10.78,10.79h465.06A81.88,81.88,0,0,0,1244,756.47Z" transform="translate(-110.8 -22.65)" style="fill:#fdcb50"/><path d="M172.31,352.57H1191.38a64.87,64.87,0,0,1,64.87,64.87V587a64.87,64.87,0,0,1-64.87,64.87H172.31a0,0,0,0,1,0,0V352.57a0,0,0,0,1,0,0Z" style="fill:#fff"/><rect x="172.31" y="352.57" width="396.53" height="299.29" style="opacity:0.1;mix-blend-mode:multiply"/><path d="M153.06,351.35H568.83a0,0,0,0,1,0,0v39.59a0,0,0,0,1,0,0H153.06a2.52,2.52,0,0,1-2.52-2.52V353.86a2.52,2.52,0,0,1,2.52-2.52Z" style="fill:#2da6d6"/><path d="M153.06,612.27H568.83a0,0,0,0,1,0,0v39.59a0,0,0,0,1,0,0H153.06a2.52,2.52,0,0,1-2.52-2.52V614.79a2.52,2.52,0,0,1,2.52-2.52Z" style="fill:#2da6d6"/><path d="M153.06,351.35H568.83a0,0,0,0,1,0,0v39.59a0,0,0,0,1,0,0H153.06a2.52,2.52,0,0,1-2.52-2.52V353.86a2.52,2.52,0,0,1,2.52-2.52Z" style="fill:#b74875"/><path d="M153.06,612.27H568.83a0,0,0,0,1,0,0v39.59a0,0,0,0,1,0,0H153.06a2.52,2.52,0,0,1-2.52-2.52V614.79a2.52,2.52,0,0,1,2.52-2.52Z" style="fill:#b74875"/><path d="M1219.31,374H672.72a19.79,19.79,0,0,0-19.79,19.79h0a19.8,19.8,0,0,0,19.8,19.8h545.85a110.66,110.66,0,0,1,110.67,110.66h0a110.67,110.67,0,0,1-110.67,110.67H672.72a19.79,19.79,0,0,0-19.79,19.79h0a19.79,19.79,0,0,0,19.79,19.79h546.59a150.26,150.26,0,0,0,150.26-150.26h0A150.25,150.25,0,0,0,1219.31,374Z" transform="translate(-110.8 -22.65)" style="fill:#c6537d"/><path d="M1129.9,373.88s-3.08,7.51-.06,46.15,0,62.49,0,62.49,25.87-11.42,43.68-28.9c0,0,24.53,28.23,49.39,31.25,0,0-5-102.54,2.55-110.87Z" transform="translate(-110.8 -22.65)" style="fill:#fdcb50"/><path d="M286.61,822h934.84a26.73,26.73,0,0,1,26.73,26.73v68.52a25.7,25.7,0,0,1-25.7,25.7H286.61a0,0,0,0,1,0,0V822A0,0,0,0,1,286.61,822Z" style="fill:#fff"/><rect x="286.61" y="829.68" width="339.42" height="112.96" style="opacity:0.1;mix-blend-mode:multiply"/><path d="M286.36,815.58H668.82a0,0,0,0,1,0,0V833a0,0,0,0,1,0,0H286.36a1.11,1.11,0,0,1-1.11-1.11V816.69a1.11,1.11,0,0,1,1.11-1.11Z" style="fill:#00ce9f"/><path d="M286.36,930.58H668.82a0,0,0,0,1,0,0V948a0,0,0,0,1,0,0H286.36a1.11,1.11,0,0,1-1.11-1.11V931.68A1.11,1.11,0,0,1,286.36,930.58Z" style="fill:#00ce9f"/><path d="M286.36,815.58H668.82a0,0,0,0,1,0,0V833a0,0,0,0,1,0,0H286.36a1.11,1.11,0,0,1-1.11-1.11V816.69a1.11,1.11,0,0,1,1.11-1.11Z" style="fill:#6aa1c6"/><path d="M286.36,930.58H668.82a0,0,0,0,1,0,0V948a0,0,0,0,1,0,0H286.36a1.11,1.11,0,0,1-1.11-1.11V931.68A1.11,1.11,0,0,1,286.36,930.58Z" style="fill:#6aa1c6"/><path d="M1367.15,904.45a66.22,66.22,0,0,0-66.22-66.22H739.34a8.73,8.73,0,0,0-8.73,8.72h0a8.73,8.73,0,0,0,8.73,8.73h556.47a48.77,48.77,0,0,1,48.77,48.77h0a48.78,48.78,0,0,1-48.77,48.78H739.34a8.72,8.72,0,0,0-8.73,8.72h0a8.73,8.73,0,0,0,8.73,8.73h561.59a66.23,66.23,0,0,0,66.22-66.23Z" transform="translate(-110.8 -22.65)" style="fill:#7db2dc"/><path d="M874.83,309.66" transform="translate(-110.8 -22.65)" style="fill:none;stroke:#f0f;stroke-miterlimit:10;stroke-width:0.287811609184942px"/><path d="M796.44,309.66" transform="translate(-110.8 -22.65)" style="fill:none;stroke:#f0f;stroke-miterlimit:10;stroke-width:0.287811609184942px"/><polygon points="635.64 338.79 622.37 342.33 609.97 353.84 624.58 364.91 642.28 362.25 635.64 338.79" style="fill:#f8af91"/><path d="M733.6,365a171.51,171.51,0,0,1-22.71-3.54c-11.36-2.65-42.24-11.06-44.73,11.07s26.62,21.25,43.66,17.48,25.56-2.43,25.56-2.43S727.92,381.36,733.6,365Z" transform="translate(-110.8 -22.65)" style="fill:#2d2d2d"/><path d="M929.48,361.44s12.17,3.54,14.38,4,11.51,9.07,11.51,9.07l-10.18,10.67-17.7-2Z" transform="translate(-110.8 -22.65)" style="fill:#f8af91"/><path d="M943.86,365.43s20.61-5.37,29.17-7.78,30.91-1.52,31.46,12.2-15.08,23.95-30.3,20.33a247.83,247.83,0,0,0-29.37-5S948.94,371.62,943.86,365.43Z" transform="translate(-110.8 -22.65)" style="fill:#2d2d2d"/><path d="M874.49,850.5s32.3.26,48.22,45.4c0,0-11.61,14.4-25,20.43,0,0,.86,36.78-74.89,85.08l-108.52,19.22V955.86l32.61-91.6L838.72,846Z" transform="translate(-110.8 -22.65)" style="fill:#9286bb"/><polyline points="811.91 873.25 837.71 929.36 805.4 941.44 786.89 893.68" style="fill:#f8af91"/><polygon points="420.62 770.43 416.72 802.36 437.93 802.36 437.93 770.44 420.62 770.43" style="fill:#f8af91"/><path d="M555.31,785.78s1.7,11.69-12.68,10.48-11.45-1.16-11.45-1.16-28-31.26-26.57-40a21.37,21.37,0,0,1,7.56-13.16l19.09,19.42Z" transform="translate(-110.8 -22.65)" style="fill:#2d2d2d"/><path d="M556.77,786.26a1.44,1.44,0,0,1-1-.43L512.59,742a1.46,1.46,0,1,1,2.08-2.05l43.14,43.87a1.46,1.46,0,0,1-1,2.48Z" transform="translate(-110.8 -22.65)" style="fill:#ffa900"/><polygon points="476.19 784.82 463.27 809.92 483.02 816.01 493.98 787.5 476.19 784.82" style="fill:#f8af91"/><path d="M586.26,750.44s-13.89,3.47-12.19,14.38S587,807.47,587,807.47s14.07,5.48,16.79,5.3,9-1.28,8.31-7.92l-13.66-28.77Z" transform="translate(-110.8 -22.65)" style="fill:#2d2d2d"/><path d="M614,806.31a1.47,1.47,0,0,1-1.32-.84l-25.83-54.41a1.46,1.46,0,0,1,2.64-1.25l25.83,54.41a1.46,1.46,0,0,1-.69,1.95A1.56,1.56,0,0,1,614,806.31Z" transform="translate(-110.8 -22.65)" style="fill:#ffa900"/><path d="M839.75,318.88S968.71,249,997,292c9.85,15-10.77,57.48-76.43,64.78-124.67,13.86-163,30.33-167.47,28.11s-6.64-23.46-6.64-23.46Z" transform="translate(-110.8 -22.65)" style="fill:#4681b7"/><path d="M929.48,361.44S764.37,266.49,703.26,292c-42.26,17.65,5.56,64.12,57.79,69.43S925.49,390,929.48,390,929.48,361.44,929.48,361.44Z" transform="translate(-110.8 -22.65)" style="fill:#3193dd"/><polygon points="751.64 815.16 753.17 863.86 746.98 891.08 725.18 869.53 725.18 800.92 749.33 792.13 751.64 815.16" style="fill:#f49e7f"/><path d="M862.83,850.23S857,863.3,836,850.76l-15.19,13.5,8.05,49.47L860,928.06l21.59-38.91Z" transform="translate(-110.8 -22.65)" style="fill:#9286bb"/><path d="M834.55,819s19.22,22.69,42,20.2,12.65-73.31,12.65-73.31l-54.63,10.43-16.69,26.48Z" transform="translate(-110.8 -22.65)" style="fill:#f8af91"/><path d="M599.18,837.2a94.07,94.07,0,0,0-15.09-5.44A80.43,80.43,0,0,0,569,829.23L547,881.13l-10.24,99.61L566,961.84S595.28,906.9,599.18,837.2Z" transform="translate(-110.8 -22.65)" style="fill:#ea9603"/><path d="M727.51,1020s-194.62,1.48-204.86,0-25.13-7.8-22.07-29.74,20.12-169.57,22.56-169.57h29.24s10.24,62.83,6.34,96.47c-2.44,21.06-14.14,57-14.14,57s110.79-67.07,182.93-71V1020Z" transform="translate(-110.8 -22.65)" style="fill:#ffa900"/><path d="M854.92,792.28c9.05,1.12,41.61,5.62,50.85-3.36s4.47-35.61-26.43-43.84c-16.47-4.4-40.07-3.32-54.89,27.16s-20.31,52.43-42.81,53.52-81.33,2.75-102.69,29.1-33.2,58.15-25.36,78.47,33.09,50.63,72.06,18.13,34.58-60.38,52.69-72.45S825,850.54,839.27,850.5c0,0-.73-37.73-.36-39.92,0,0-5.68-.55-5.49-8.05s7.68-6.77,9.88-6.41S851.94,791.92,854.92,792.28Z" transform="translate(-110.8 -22.65)" style="fill:#2d2d2d"/><path d="M770.54,205.75l1.32-2a115.32,115.32,0,0,1-.19,53.22L755.3,239.71Z" transform="translate(-110.8 -22.65)" style="opacity:0.4;mix-blend-mode:multiply;fill:url(#1dc41690-1e6d-4e44-90f0-a8bab5e313e1)"/><path d="M906.46,205.75s-.14.24-.3-.92A98.73,98.73,0,0,0,904.74,257l16.38-17.27Z" transform="translate(-110.8 -22.65)" style="opacity:0.4;mix-blend-mode:multiply;fill:url(#e2cb50eb-4d9a-4253-9e10-a1cd4d0c6424)"/><path d="M738.21,191.07q-1.43,5.55-2.57,11.7C717.33,302,798.22,309.66,798.22,309.66l5.55-24.28s-36.19-26-37.9-41.73,4.67-37.9,4.67-37.9l-32.33-14.68" transform="translate(-110.8 -22.65)" style="fill:#f8af91"/><path d="M933.76,186.63l-27.3,19.12s9,33.42,0,45.77-37.54,32.58-37.54,32.58l28.53,25.55S961,287.44,939.61,204.9q-1.56-6-3.34-11.52" transform="translate(-110.8 -22.65)" style="fill:#f8af91"/><path d="M768,311.27s-.63-77.75,0-78.64,150.68-2.65,152,0,0,78.64,0,78.64" transform="translate(-110.8 -22.65)" style="fill:#2d2d2d"/><path d="M798.65,952.56l7.24-9.17s-10.18,53.49-19,61.94-35-7.05-35-7.05Z" transform="translate(-110.8 -22.65)" style="opacity:0.4;mix-blend-mode:multiply;fill:url(#c5caf06f-3f8a-4484-ae4e-97d0919fa0b7)"/><path d="M798.65,952.56l-43.36-24.5s-40.15,78.81-31.6,90.9,145.77,1.67,145.77,1.67l43.08-19.22s-141.33-2.74-143-7.13S775.05,986.15,798.65,952.56Z" transform="translate(-110.8 -22.65)" style="fill:#f8af91"/><polygon points="769.9 988.88 825.67 875.35 1006.93 875.35 948.17 997.85 712.14 997.85 712.14 985.9 769.9 988.88" style="fill:#2d2d2d"/></g></g></svg>